<svg width="637" height="481" viewBox="0 0 637 481" fill="none" xmlns="http://www.w3.org/2000/svg">
<mask id="path-1-outside-1_149_10" maskUnits="userSpaceOnUse" x="16" y="12" width="607" height="457" fill="black">
<rect fill="white" x="16" y="12" width="607" height="457"/>
<path d="M59.05 453.1C47.95 453.4 40.45 451.6 36.55 447.7C32.95 444.1 31.15 435.85 31.15 422.95V57.55C31.15 44.65 32.95 36.4 36.55 32.8C40.45 28.9 47.95 27.1 59.05 27.4H123.85C130.75 27.4 134.2 30.7 134.2 37.3C134.2 43.6 130.75 46.75 123.85 46.75H69.4C66.4 46.75 64.9 48.55 64.9 52.15V428.35C64.9 431.95 66.4 433.75 69.4 433.75H123.85C130.75 433.75 134.2 436.9 134.2 443.2C134.2 449.8 130.75 453.1 123.85 453.1H59.05ZM209.002 360.4C200.902 360.4 194.152 357.85 188.752 352.75C183.352 347.35 180.652 340.45 180.652 332.05C180.652 324.25 183.352 317.65 188.752 312.25C194.152 306.85 201.052 304.15 209.452 304.15C217.552 304.15 224.302 306.85 229.702 312.25C235.402 317.65 238.252 324.25 238.252 332.05C238.252 340.45 235.402 347.35 229.702 352.75C224.302 357.85 217.402 360.4 209.002 360.4ZM318.953 360.4C310.853 360.4 304.103 357.85 298.703 352.75C293.303 347.35 290.603 340.45 290.603 332.05C290.603 324.25 293.303 317.65 298.703 312.25C304.103 306.85 311.003 304.15 319.403 304.15C327.503 304.15 334.253 306.85 339.653 312.25C345.353 317.65 348.203 324.25 348.203 332.05C348.203 340.45 345.353 347.35 339.653 352.75C334.253 357.85 327.353 360.4 318.953 360.4ZM428.904 360.4C420.804 360.4 414.054 357.85 408.654 352.75C403.254 347.35 400.554 340.45 400.554 332.05C400.554 324.25 403.254 317.65 408.654 312.25C414.054 306.85 420.954 304.15 429.354 304.15C437.454 304.15 444.204 306.85 449.604 312.25C455.304 317.65 458.154 324.25 458.154 332.05C458.154 340.45 455.304 347.35 449.604 352.75C444.204 357.85 437.304 360.4 428.904 360.4ZM515.005 453.1C508.105 453.1 504.655 449.8 504.655 443.2C504.655 436.9 508.105 433.75 515.005 433.75H569.455C572.455 433.75 573.955 431.95 573.955 428.35V52.15C573.955 48.55 572.455 46.75 569.455 46.75H515.005C508.105 46.75 504.655 43.6 504.655 37.3C504.655 30.7 508.105 27.4 515.005 27.4H579.805C590.905 27.1 598.255 28.9 601.855 32.8C605.755 36.4 607.705 44.65 607.705 57.55V422.95C607.705 435.85 605.755 444.1 601.855 447.7C598.255 451.6 590.905 453.4 579.805 453.1H515.005Z"/>
</mask>
<path d="M59.05 453.1V438.1H58.8473L58.6447 438.105L59.05 453.1ZM36.55 447.7L25.9434 458.307L25.9434 458.307L36.55 447.7ZM36.55 32.8L47.1566 43.4066L47.1566 43.4066L36.55 32.8ZM59.05 27.4L58.6447 42.3945L58.8473 42.4H59.05V27.4ZM58.6447 438.105C53.886 438.234 50.6476 437.88 48.6006 437.389C46.5166 436.889 46.5196 436.456 47.1566 437.093L25.9434 458.307C34.5911 466.954 47.8745 468.408 59.4553 468.095L58.6447 438.105ZM47.1566 437.093C48.3236 438.26 47.8047 438.592 47.1552 435.615C46.5708 432.937 46.15 428.825 46.15 422.95H16.15C16.15 429.975 16.6292 436.438 17.8448 442.01C18.9953 447.283 21.1764 453.54 25.9434 458.307L47.1566 437.093ZM46.15 422.95V57.55H16.15V422.95H46.15ZM46.15 57.55C46.15 51.6752 46.5708 47.5635 47.1552 44.885C47.8047 41.9083 48.3236 42.2396 47.1566 43.4066L25.9434 22.1934C21.1765 26.9603 18.9953 33.2167 17.8448 38.49C16.6292 44.0615 16.15 50.5248 16.15 57.55H46.15ZM47.1566 43.4066C46.5196 44.0436 46.5166 43.611 48.6006 43.1108C50.6476 42.6195 53.886 42.2659 58.6447 42.3945L59.4553 12.4055C47.8745 12.0925 34.5911 13.5457 25.9434 22.1934L47.1566 43.4066ZM59.05 42.4H123.85V12.4H59.05V42.4ZM123.85 42.4C125.15 42.4 123.342 42.7215 121.244 40.7146C119.021 38.5886 119.2 36.4862 119.2 37.3H149.2C149.2 31.5138 147.654 24.4614 141.981 19.0354C136.433 13.7284 129.45 12.4 123.85 12.4V42.4ZM119.2 37.3C119.2 37.5453 119.162 37.1142 119.463 36.2902C119.795 35.3808 120.442 34.2748 121.498 33.3102C123.604 31.3879 125.309 31.75 123.85 31.75V61.75C129.291 61.75 136.171 60.537 141.727 55.4648C147.54 50.1564 149.2 43.1312 149.2 37.3H119.2ZM123.85 31.75H69.4V61.75H123.85V31.75ZM69.4 31.75C64.796 31.75 58.8645 33.2618 54.5017 38.4972C50.5754 43.2088 49.9 48.6364 49.9 52.15H79.9C79.9 52.2426 79.8957 52.8601 79.634 53.8021C79.3621 54.7812 78.7751 56.2306 77.5483 57.7027C74.6855 61.1381 71.004 61.75 69.4 61.75V31.75ZM49.9 52.15V428.35H79.9V52.15H49.9ZM49.9 428.35C49.9 431.864 50.5754 437.291 54.5017 442.003C58.8645 447.238 64.796 448.75 69.4 448.75V418.75C71.004 418.75 74.6855 419.362 77.5483 422.797C78.7751 424.269 79.362 425.719 79.634 426.698C79.8957 427.64 79.9 428.257 79.9 428.35H49.9ZM69.4 448.75H123.85V418.75H69.4V448.75ZM123.85 448.75C125.309 448.75 123.604 449.112 121.498 447.19C120.442 446.225 119.795 445.119 119.463 444.21C119.162 443.386 119.2 442.955 119.2 443.2H149.2C149.2 437.369 147.54 430.344 141.727 425.035C136.171 419.963 129.291 418.75 123.85 418.75V448.75ZM119.2 443.2C119.2 444.014 119.021 441.911 121.244 439.785C123.342 437.778 125.15 438.1 123.85 438.1V468.1C129.45 468.1 136.433 466.772 141.981 461.465C147.654 456.039 149.2 448.986 149.2 443.2H119.2ZM123.85 438.1H59.05V468.1H123.85V438.1ZM188.752 352.75L178.145 363.357L178.297 363.508L178.453 363.655L188.752 352.75ZM188.752 312.25L199.359 322.857L199.359 322.857L188.752 312.25ZM229.702 312.25L219.095 322.857L219.239 323L219.386 323.139L229.702 312.25ZM229.702 352.75L240.001 363.655L240.01 363.647L240.018 363.639L229.702 352.75ZM209.002 345.4C204.353 345.4 201.403 344.066 199.051 341.845L178.453 363.655C186.901 371.634 197.45 375.4 209.002 375.4V345.4ZM199.359 342.143C197.066 339.851 195.652 336.909 195.652 332.05H165.652C165.652 343.991 169.638 354.849 178.145 363.357L199.359 342.143ZM195.652 332.05C195.652 328.133 196.838 325.377 199.359 322.857L178.145 301.643C169.866 309.923 165.652 320.367 165.652 332.05H195.652ZM199.359 322.857C201.651 320.564 204.593 319.15 209.452 319.15V289.15C197.511 289.15 186.653 293.136 178.145 301.643L199.359 322.857ZM209.452 319.15C213.842 319.15 216.692 320.454 219.095 322.857L240.309 301.643C231.912 293.246 221.262 289.15 209.452 289.15V319.15ZM219.386 323.139C222.118 325.728 223.252 328.4 223.252 332.05H253.252C253.252 320.1 248.686 309.572 240.018 301.361L219.386 323.139ZM223.252 332.05C223.252 336.652 221.87 339.507 219.386 341.861L240.018 363.639C248.934 355.193 253.252 344.248 253.252 332.05H223.252ZM219.403 341.845C217.157 343.965 214.114 345.4 209.002 345.4V375.4C220.69 375.4 231.447 371.735 240.001 363.655L219.403 341.845ZM298.703 352.75L288.097 363.357L288.248 363.508L288.404 363.655L298.703 352.75ZM298.703 312.25L309.31 322.857L309.31 322.857L298.703 312.25ZM339.653 312.25L329.047 322.857L329.19 323L329.337 323.139L339.653 312.25ZM339.653 352.75L349.952 363.655L349.961 363.647L349.969 363.639L339.653 352.75ZM318.953 345.4C314.305 345.4 311.355 344.066 309.002 341.845L288.404 363.655C296.852 371.634 307.402 375.4 318.953 375.4V345.4ZM309.31 342.143C307.017 339.851 305.603 336.909 305.603 332.05H275.603C275.603 343.991 279.589 354.849 288.097 363.357L309.31 342.143ZM305.603 332.05C305.603 328.133 306.789 325.377 309.31 322.857L288.097 301.643C279.817 309.923 275.603 320.367 275.603 332.05H305.603ZM309.31 322.857C311.602 320.564 314.545 319.15 319.403 319.15V289.15C307.462 289.15 296.604 293.136 288.097 301.643L309.31 322.857ZM319.403 319.15C323.793 319.15 326.643 320.454 329.047 322.857L350.26 301.643C341.863 293.246 331.214 289.15 319.403 289.15V319.15ZM329.337 323.139C332.069 325.728 333.203 328.4 333.203 332.05H363.203C363.203 320.1 358.637 309.572 349.969 301.361L329.337 323.139ZM333.203 332.05C333.203 336.652 331.821 339.507 329.337 341.861L349.969 363.639C358.885 355.193 363.203 344.248 363.203 332.05H333.203ZM329.354 341.845C327.109 343.965 324.065 345.4 318.953 345.4V375.4C330.641 375.4 341.398 371.735 349.952 363.655L329.354 341.845ZM408.654 352.75L398.048 363.357L398.199 363.508L398.355 363.655L408.654 352.75ZM408.654 312.25L419.261 322.857L419.261 322.857L408.654 312.25ZM449.604 312.25L438.998 322.857L439.141 323L439.288 323.139L449.604 312.25ZM449.604 352.75L459.904 363.655L459.912 363.647L459.92 363.639L449.604 352.75ZM428.904 345.4C424.256 345.4 421.306 344.066 418.954 341.845L398.355 363.655C406.803 371.634 417.353 375.4 428.904 375.4V345.4ZM419.261 342.143C416.968 339.851 415.554 336.909 415.554 332.05H385.554C385.554 343.991 389.54 354.849 398.048 363.357L419.261 342.143ZM415.554 332.05C415.554 328.133 416.741 325.377 419.261 322.857L398.048 301.643C389.768 309.923 385.554 320.367 385.554 332.05H415.554ZM419.261 322.857C421.553 320.564 424.496 319.15 429.354 319.15V289.15C417.413 289.15 406.555 293.136 398.048 301.643L419.261 322.857ZM429.354 319.15C433.744 319.15 436.595 320.454 438.998 322.857L460.211 301.643C451.814 293.246 441.165 289.15 429.354 289.15V319.15ZM439.288 323.139C442.021 325.728 443.154 328.4 443.154 332.05H473.154C473.154 320.1 468.588 309.572 459.92 301.361L439.288 323.139ZM443.154 332.05C443.154 336.652 441.773 339.507 439.288 341.861L459.92 363.639C468.836 355.193 473.154 344.248 473.154 332.05H443.154ZM439.305 341.845C437.06 343.965 434.016 345.4 428.904 345.4V375.4C440.593 375.4 451.349 371.735 459.904 363.655L439.305 341.845ZM579.805 27.4V42.4H580.008L580.211 42.3945L579.805 27.4ZM601.855 32.8L590.833 42.9742L591.24 43.4151L591.681 43.8221L601.855 32.8ZM601.855 447.7L591.681 436.678L591.24 437.085L590.833 437.526L601.855 447.7ZM579.805 453.1L580.211 438.105L580.008 438.1H579.805V453.1ZM515.005 438.1C513.705 438.1 515.513 437.778 517.611 439.785C519.834 441.911 519.655 444.014 519.655 443.2H489.655C489.655 448.986 491.202 456.039 496.875 461.465C502.423 466.772 509.406 468.1 515.005 468.1V438.1ZM519.655 443.2C519.655 442.955 519.694 443.386 519.393 444.21C519.061 445.119 518.413 446.225 517.357 447.19C515.252 449.112 513.547 448.75 515.005 448.75V418.75C509.564 418.75 502.684 419.963 497.129 425.035C491.315 430.344 489.655 437.369 489.655 443.2H519.655ZM515.005 448.75H569.455V418.75H515.005V448.75ZM569.455 448.75C574.059 448.75 579.991 447.238 584.354 442.003C588.28 437.291 588.955 431.864 588.955 428.35H558.955C558.955 428.257 558.96 427.64 559.221 426.698C559.493 425.719 560.08 424.269 561.307 422.797C564.17 419.362 567.851 418.75 569.455 418.75V448.75ZM588.955 428.35V52.15H558.955V428.35H588.955ZM588.955 52.15C588.955 48.6364 588.28 43.2088 584.354 38.4972C579.991 33.2618 574.059 31.75 569.455 31.75V61.75C567.851 61.75 564.17 61.1381 561.307 57.7027C560.08 56.2306 559.493 54.7812 559.221 53.8021C558.96 52.8601 558.955 52.2426 558.955 52.15H588.955ZM569.455 31.75H515.005V61.75H569.455V31.75ZM515.005 31.75C513.547 31.75 515.252 31.3879 517.357 33.3102C518.413 34.2748 519.061 35.3808 519.393 36.2902C519.694 37.1142 519.655 37.5453 519.655 37.3H489.655C489.655 43.1312 491.315 50.1564 497.129 55.4648C502.684 60.537 509.564 61.75 515.005 61.75V31.75ZM519.655 37.3C519.655 36.4862 519.834 38.5886 517.611 40.7146C515.513 42.7215 513.705 42.4 515.005 42.4V12.4C509.406 12.4 502.423 13.7284 496.875 19.0354C491.202 24.4614 489.655 31.5138 489.655 37.3H519.655ZM515.005 42.4H579.805V12.4H515.005V42.4ZM580.211 42.3945C584.985 42.2655 588.151 42.6233 590.075 43.0944C592.053 43.5788 591.715 43.929 590.833 42.9742L612.878 22.6258C608.396 17.7709 602.583 15.2712 597.211 13.9555C591.785 12.6267 585.726 12.2345 579.4 12.4055L580.211 42.3945ZM591.681 43.8221C590.482 42.7148 590.982 42.3302 591.645 45.1379C592.253 47.7086 592.705 51.7261 592.705 57.55H622.705C622.705 50.4739 622.183 43.9164 620.841 38.2371C619.554 32.7947 617.129 26.4852 612.03 21.7779L591.681 43.8221ZM592.705 57.55V422.95H622.705V57.55H592.705ZM592.705 422.95C592.705 428.774 592.253 432.791 591.645 435.362C590.982 438.17 590.482 437.785 591.681 436.678L612.03 458.722C617.129 454.015 619.554 447.705 620.841 442.263C622.183 436.584 622.705 430.026 622.705 422.95H592.705ZM590.833 437.526C591.715 436.571 592.053 436.921 590.075 437.406C588.151 437.877 584.985 438.235 580.211 438.105L579.4 468.095C585.726 468.265 591.785 467.873 597.211 466.544C602.583 465.229 608.396 462.729 612.878 457.874L590.833 437.526ZM579.805 438.1H515.005V468.1H579.805V438.1Z" fill="#AAAAAA" fill-opacity="0.05" mask="url(#path-1-outside-1_149_10)"/>
</svg>
