<svg width="690" height="400" viewBox="0 0 690 400" fill="none" xmlns="http://www.w3.org/2000/svg">
<path d="M399.666 1.61048C391.798 4.49466 385.853 9.38904 380.432 17.4298C378.946 19.6148 370.816 37.4443 362.248 57.1966C353.681 76.8615 340.655 106.752 333.224 123.62C325.793 140.401 318.711 156.57 317.487 159.454C315.214 164.96 304.549 189.17 285.315 232.87C278.933 247.29 272.027 263.022 270.016 267.829C260.4 290.553 244.401 326.387 240.554 334.253C235.222 344.828 234.435 347.363 233.386 355.491C232.337 363.707 233.561 372.796 236.446 379.351C240.729 388.965 252.444 397.268 264.683 399.54C276.923 401.813 292.134 395.433 298.429 385.382C301.139 381.012 323.345 330.67 380.258 199.92C407.621 136.992 431.925 81.6684 434.286 77.0363C440.667 64.3633 446.437 49.2432 447.661 42.0765C450.809 23.7226 440.318 6.41745 423.095 1.34828C416.538 -0.574507 405.436 -0.399708 399.666 1.61048ZM420.21 17.0802C426.243 19.6148 430.876 25.4705 432.1 32.4625C433.236 38.6679 428.428 53.0888 418.899 71.9671C416.713 76.3371 412.43 85.6014 409.457 92.5934C393.633 129.301 313.728 312.578 301.052 340.983C293.009 359.162 285.578 375.331 284.616 376.817C281.906 380.924 275.524 383.809 269.667 383.721C260.924 383.634 251.745 377.428 249.821 370.262C249.297 368.251 249.035 363.182 249.209 359.074C249.559 352.17 249.909 350.946 254.018 342.906C258.127 334.865 269.492 309.169 290.823 259.963C295.631 248.864 302.713 232.782 306.472 224.13C310.319 215.477 317.487 199.133 322.471 187.859C327.366 176.584 337.77 152.724 345.638 134.982C353.419 117.153 367.231 85.6014 376.236 64.8003C393.896 24.1596 395.906 20.6636 403.337 17.3424C407.709 15.3322 415.752 15.1574 420.21 17.0802Z" fill="#AAAAAA" fill-opacity="0.05"/>
<path d="M159.425 86.4755C155.579 87.6991 151.644 90.1462 144.563 95.9146C139.318 100.11 125.68 110.685 114.402 119.25C103.124 127.815 86.6012 140.663 77.684 147.655C68.7668 154.647 53.4676 166.621 43.5887 174.137C18.7604 193.015 8.6192 201.581 5.2971 206.562C-4.84406 221.683 -0.035748 241.522 16.3999 252.709C18.5855 254.195 41.8402 271.413 68.0674 290.903C160.299 359.512 158.026 358.026 171.227 358.9C185.215 359.949 196.755 353.481 202.175 341.769C204.711 336.263 204.798 323.94 202.35 317.647C198.853 308.732 196.668 306.198 184.866 297.72C178.658 293.35 160.999 280.24 145.525 268.703C130.051 257.167 110.031 242.221 101.026 235.579C92.0215 228.849 84.9401 223.081 85.2898 222.731C85.727 222.382 94.819 215.302 105.66 206.999C157.152 167.32 186.789 144.247 190.635 140.838C193.346 138.303 195.881 134.807 198.066 130.35C200.951 124.494 201.389 122.834 201.651 116.279C201.913 110.248 201.651 107.801 200.077 103.781C197.629 97.2256 191.685 90.6706 185.477 87.6117C178.746 84.3779 167.293 83.8535 159.425 86.4755ZM179.096 102.382C185.827 107.014 187.838 114.269 184.428 121.96C181.456 128.515 186.789 124.057 120.085 175.623C81.5306 205.339 59.325 222.993 59.325 223.78C59.325 224.13 68.8542 231.471 80.569 240.211C92.1963 248.864 113.178 264.508 127.078 274.996C141.066 285.397 159.513 299.031 168.168 305.236C176.823 311.529 184.428 317.21 184.953 317.997C187.051 320.706 188.887 328.485 188.275 332.155C186.527 342.206 174.462 346.314 163.184 340.546C158.988 338.361 142.29 326.212 81.618 281.027C58.9753 264.246 36.2451 247.378 30.9123 243.532C17.7113 234.093 14.0395 228.15 16.3999 220.197C18.2358 213.991 22.1699 210.408 56.2652 184.363C67.8051 175.536 81.0061 165.31 85.5521 161.639C90.0982 157.968 106.621 145.208 122.27 133.234C137.919 121.26 153.043 109.549 155.928 107.189C162.485 101.683 165.195 100.547 171.315 100.459C174.987 100.459 176.91 100.984 179.096 102.382Z" fill="#AAAAAA" fill-opacity="0.05"/>
<path d="M506.497 86.9124C499.591 89.7092 492.072 97.4003 489.799 104.13C487.526 110.598 487.701 120.386 490.236 126.767C494.433 137.779 491.723 135.332 562.011 189.607C582.906 205.688 601.09 219.934 602.489 221.158L605.111 223.43L572.415 247.815C554.406 261.274 529.49 279.716 517.076 288.805C493.034 306.46 491.373 308.121 487.701 317.822C485.516 323.765 485.341 334.777 487.439 340.109C492.247 352.694 504.487 359.948 519.174 358.9C531.763 358.026 531.063 358.55 601.352 306.285C629.852 285.134 653.02 268.004 673.214 253.146C680.558 247.727 684.23 243.445 687.814 235.929C689.65 231.996 690 229.898 690 224.13C690 218.099 689.563 216.264 687.29 211.457C685.803 208.31 683.268 204.377 681.607 202.542C678.722 199.396 657.391 182.44 632.388 163.387C625.219 157.881 612.018 147.655 603.101 140.663C594.183 133.584 579.234 122.047 569.88 114.88C560.525 107.713 549.16 98.7987 544.614 95.0406C538.057 89.6218 535.172 87.8738 530.714 86.4754C522.671 83.9408 513.316 84.1156 506.497 86.9124ZM525.381 101.333C527.042 101.77 531.413 104.655 534.997 107.713C538.582 110.772 549.16 119.075 558.514 126.242C567.869 133.409 582.818 145.033 591.735 152.025C600.653 159.017 615.165 170.379 624.082 177.109C657.653 202.717 669.892 212.855 671.903 216.351C673.214 218.623 673.914 221.245 673.914 224.217C673.914 231.559 671.116 234.792 654.156 247.29C646.026 253.234 621.197 271.588 598.992 288.106C531.763 338.011 528.004 340.633 522.758 342.206C510.868 345.79 501.689 340.021 501.689 329.009C501.776 319.832 501.776 319.832 537.62 293.35C612.63 237.851 630.639 224.392 630.814 223.867C630.989 223.168 613.941 209.621 573.814 178.594C505.361 125.63 508.333 128.165 506.322 123.533C503.7 117.59 503.263 114.88 504.312 111.035C506.672 102.382 515.065 98.4491 525.381 101.333Z" fill="#AAAAAA" fill-opacity="0.05"/>
</svg>
