<svg width="500" height="400" viewBox="0 0 500 400" fill="none" xmlns="http://www.w3.org/2000/svg">
<path d="M8.79499 0.512464C5.73199 1.38853 1.54381 5.89403 0.668668 9.21058C0.0435658 11.4008 -0.0814546 53.7024 0.0435658 201.695L0.231096 391.302L1.98138 393.93C2.91903 395.369 4.85685 397.309 6.29458 398.248L8.92001 400H250.022H491.124L493.874 398.123C495.437 396.996 497.312 394.869 498.25 393.117L500 389.988L499.812 199.38L499.687 8.83512L497.937 6.20691C497 4.76766 495.062 2.82779 493.624 1.88914L490.999 0.137006L250.959 0.0118529C99.1847 -0.0507235 10.1077 0.137006 8.79499 0.512464ZM474.996 49.8852V74.9158H249.959H24.9226V49.8852V24.8547H249.959H474.996V49.8852ZM474.996 237.614V375.282H249.959H24.9226V237.614V99.9463H249.959H474.996V237.614Z" fill="#AAAAAA"/>
<path d="M45.8002 40.7495C44.7375 41.2501 43.0498 42.6893 42.0496 44.0034C40.5494 45.9433 40.2368 46.9445 40.2368 49.9482C40.2368 55.9555 43.8624 59.585 49.8634 59.585C52.8639 59.585 53.864 59.2721 55.8019 57.7702C65.1159 50.6991 56.4895 36.1188 45.8002 40.7495Z" fill="#AAAAAA"/>
<path d="M83.3075 40.7492C82.2449 41.2498 80.5571 42.689 79.5569 44.0031C78.0567 45.943 77.7441 46.9442 77.7441 49.8853C77.7441 52.8264 78.0567 53.8276 79.5569 55.7675C84.1827 61.8374 93.1842 60.8362 96.4972 53.8902C100.248 45.8804 91.4964 37.1823 83.3075 40.7492Z" fill="#AAAAAA"/>
<path d="M120.812 40.7487C119.75 41.2493 118.062 42.6886 117.062 44.0027C115.562 45.9425 115.249 46.9438 115.249 49.9474C115.249 55.3916 118.562 59.1461 123.813 59.7093C131.314 60.5854 137.19 52.5756 134.002 45.88C131.689 41.0616 125.501 38.6211 120.812 40.7487Z" fill="#AAAAAA"/>
<path d="M288.152 151.009C287.027 151.634 285.464 153.136 284.651 154.325C283.464 156.14 248.645 216.964 242.332 228.228C241.457 229.792 239.456 233.234 237.831 235.925C236.268 238.616 234.956 240.931 234.956 241.056C234.956 241.244 233.768 243.371 232.268 245.874C229.83 249.942 225.392 257.764 221.954 263.959C221.266 265.148 218.516 269.966 215.828 274.597C213.14 279.228 209.952 284.797 208.701 287.05C207.451 289.302 203.388 296.436 199.762 302.882C196.012 309.452 192.949 315.647 192.761 316.961C192.136 320.778 194.449 324.408 199.325 327.411C202.888 329.602 203.888 329.915 207.139 329.915C211.952 329.915 213.89 328.6 216.89 323.281C218.14 321.091 233.706 293.808 251.521 262.645C269.336 231.482 285.714 202.759 287.902 198.817C290.152 194.875 293.465 189.055 295.216 185.989C307.218 165.464 307.092 165.714 307.092 162.46C307.092 158.393 305.342 155.765 300.529 152.886C295.778 149.945 291.527 149.319 288.152 151.009Z" fill="#AAAAAA"/>
<path d="M150.319 160.958C148.381 161.647 139.942 169.719 112.563 197.065C91.6845 217.965 76.807 233.297 76.0569 234.799C74.4316 237.802 74.3691 242.183 75.8069 245.186C76.3695 246.375 92.6221 263.083 112.625 283.107C151.694 322.155 150.694 321.342 156.07 319.715C159.508 318.651 165.947 312.268 166.822 309.014C168.384 303.194 169.135 304.196 135.692 270.592L105.249 240.118L135.067 210.206C151.444 193.811 165.259 179.481 165.822 178.355C167.884 174.287 166.822 169.844 162.759 165.151C158.945 160.771 154.695 159.331 150.319 160.958Z" fill="#AAAAAA"/>
<path d="M343.974 160.708C341.536 161.396 335.723 167.028 334.597 169.781C333.472 172.472 333.472 175.163 334.66 178.041C335.348 179.606 344.912 189.68 365.165 209.955C381.418 226.225 394.67 239.804 394.67 240.117C394.67 240.43 381.105 254.322 364.54 270.905C342.161 293.369 334.347 301.63 334.035 303.006C333.785 304.007 333.472 305.259 333.347 305.76C332.722 307.825 334.472 311.329 338.098 315.021C342.599 319.652 345.162 320.715 349.35 319.589C351.913 318.963 355.476 315.521 388.481 282.481C423.987 246.875 424.862 245.999 425.612 242.87C427.175 236.05 428.863 238.177 389.169 198.253C364.915 173.911 352.6 162.022 350.913 161.208C348.162 159.957 346.912 159.831 343.974 160.708Z" fill="#AAAAAA"/>
</svg>
