<svg width="60" height="51" viewBox="0 0 60 51" fill="none" xmlns="http://www.w3.org/2000/svg">
<path d="M28.358 0.10466C27.0052 0.375224 26.3903 0.719582 25.2589 1.80184C24.1028 2.8841 23.6847 3.622 23.3403 5.24539C22.9959 6.86878 23.3895 8.83652 24.3242 10.1156C24.6931 10.6321 28.9484 14.1986 33.7693 18.0111C38.5903 21.8482 42.5504 25.0704 42.5504 25.1688C42.5504 25.2672 38.6887 28.4156 33.9907 32.1297C29.2681 35.8684 25.0621 39.3119 24.6439 39.8039C24.2258 40.2958 23.6847 41.3043 23.4633 42.0668C22.5286 45.2644 24.1028 48.462 27.2758 49.864C28.7024 50.4789 31.5064 50.3559 32.7855 49.618C33.5726 49.1507 37.6064 45.9777 52.7581 33.9498C57.8496 29.916 58.9319 28.8337 59.473 27.1857C60.0879 25.4148 59.6944 22.8567 58.5383 21.2579C57.9234 20.397 33.6956 1.16233 32.4903 0.596599C31.3589 0.0554699 29.6617 -0.141308 28.358 0.10466Z" fill="#FFB442"/>
<path d="M4.54812 37.6805C1.66989 38.6964 -0.0473782 41.0667 0.00099554 43.9691C0.0251824 46.3394 1.2829 48.4195 3.38715 49.5563C4.49975 50.1609 4.9593 50.2577 6.41051 50.2577C12.4572 50.2093 15.2145 43.1709 10.7883 39.1076C9.09525 37.5354 6.55563 36.9549 4.54812 37.6805Z" fill="#FFB442"/>
</svg>
