<svg width="500" height="526" viewBox="0 0 500 526" fill="none" xmlns="http://www.w3.org/2000/svg">
<path d="M199.565 24.6317L156.493 48.6712L155.632 75.4738L154.77 102L143.285 103.658C126.917 106.145 111.699 114.158 101.075 126.04C91.5988 136.263 83.2716 152.29 83.2716 160.579C83.2716 163.619 70.9245 171.908 45.6558 185.447C24.6943 196.776 6.03001 207.553 4.02001 209.763C0.86143 212.526 0 224.684 0 262.263C0 289.066 1.14857 312.829 2.58429 314.763C3.73287 316.697 22.1101 328.026 43.0715 339.632C80.6873 360.632 81.5488 361.184 85.2816 373.619C92.4602 397.934 123.472 423.079 145.869 423.079H155.058V447.671C155.058 467.013 156.206 473.369 160.226 477.513C167.692 485.803 242.349 525.316 250.102 525.316C253.835 525.316 276.519 514.263 300.065 501L343.137 476.961L343.998 449.882L344.859 423.079H354.048C381.901 422.803 407.744 398.763 417.794 363.395C418.368 361.461 435.31 351.237 455.697 340.184C475.797 329.132 494.174 318.079 496.184 315.869C501.64 309.237 501.065 215.013 495.61 209.487C493.313 207.276 474.648 196.5 454.261 185.447C417.22 165.276 417.22 165 413.774 152.013C407.17 127.974 375.871 102.553 352.612 102.553H344.572V76.5791C344.572 45.908 349.454 51.158 292.599 20.2107C272.499 9.15804 253.261 0.315918 249.528 0.315918C245.795 0.315918 223.398 11.3686 199.565 24.6317ZM277.668 42.0396C291.451 49.7764 303.224 56.408 303.511 56.6843C303.798 56.9606 291.738 63.8685 276.806 71.8817L249.815 86.5264L222.536 71.8817C205.595 62.487 196.693 56.408 198.99 55.0265C225.982 39.2765 246.082 28.5001 248.953 28.2238C250.676 27.9475 263.598 34.3027 277.668 42.0396ZM211.338 94.8159L238.329 109.461V139.026C238.329 155.605 237.468 168.869 236.319 168.869C234.883 168.869 222.536 162.237 208.179 154.224L182.336 139.579L181.475 110.013C181.188 93.7107 181.475 80.4475 182.623 80.4475C183.485 80.4475 196.406 87.0791 211.338 94.8159ZM318.155 110.013L317.294 139.579L291.451 154.224C277.381 162.237 264.746 168.869 263.598 168.869C262.162 168.869 261.301 155.605 261.301 139.026V109.461L288.005 95.0922C302.362 87.0791 315.571 80.7238 316.719 80.4475C317.868 80.4475 318.442 93.7107 318.155 110.013ZM155.058 139.026C155.058 145.658 156.206 152.29 157.355 153.948C160.226 158.369 244.646 204.79 249.528 204.79C254.696 204.79 339.404 158.369 342.275 153.948C343.424 152.29 344.572 145.382 344.572 138.75V126.592L354.048 128.526C368.979 131.29 384.485 145.105 388.792 159.197C390.228 164.171 385.059 168.04 351.177 187.105L311.551 208.934L310.689 257.29C310.402 283.816 310.689 308.132 311.264 311.447C312.412 315.04 325.908 324.158 351.751 338.526C386.208 357.592 390.515 360.908 388.792 366.158C385.634 376.105 374.148 388.816 363.811 393.79C347.731 400.974 344.572 399.869 344.572 386.329C344.572 379.974 343.424 373.342 342.275 371.684C339.117 366.987 254.983 320.842 249.815 320.842C244.646 320.842 160.513 366.987 157.355 371.684C156.206 373.342 155.058 380.25 155.058 386.882V398.763L145.869 397.105C140.7 396.276 133.235 393.237 129.215 390.198C120.887 384.395 109.115 368.645 109.115 363.395C109.115 361.461 125.482 350.961 145.869 339.908C165.969 329.132 184.059 318.079 186.069 315.869C188.366 312.829 189.515 297.632 189.515 262.816C189.515 228 188.366 212.803 186.069 209.763C184.059 207.553 165.969 196.5 145.869 185.447C125.482 174.395 109.115 163.895 109.115 161.961C109.115 150.632 135.532 127.421 148.166 127.421C154.196 127.421 155.058 128.803 155.058 139.026ZM123.472 202.855L149.602 217.776L124.046 231.869C109.976 239.882 96.7674 246.237 94.7574 246.237C93.0345 246.237 80.113 239.605 66.3302 231.869L41.0615 217.224L67.1916 202.855C81.5488 194.842 94.1831 188.211 95.3317 188.211C96.4802 188.211 109.115 194.842 123.472 202.855ZM432.151 202.579L458.855 217.224L431.577 232.697L404.298 248.447L377.307 232.974L350.028 217.776L375.297 203.408C389.079 195.395 401.714 188.487 402.862 188.487C404.298 188.211 417.507 194.842 432.151 202.579ZM55.993 255.355L81.8359 270L82.6973 299.566C82.9845 315.869 82.6973 329.132 81.5488 329.132C80.6873 329.132 67.7659 322.5 52.8344 314.487L25.8429 300.119V270.276C25.8429 253.974 26.7043 240.711 28.1401 240.711C29.2886 240.711 41.923 247.342 55.993 255.355ZM163.672 270.553V300.395L138.69 314.211C124.907 321.671 112.56 328.026 111.412 328.579C110.263 329.132 109.115 316.145 109.115 299.566V269.724L135.819 255.355C150.176 247.342 162.523 240.711 163.098 240.711C163.385 240.711 163.672 254.25 163.672 270.553ZM365.534 255.632L390.515 269.448V299.566C390.515 316.145 389.367 329.132 388.218 328.579C387.07 328.026 374.722 321.671 360.939 314.211L335.958 300.395V270.276C335.958 253.697 337.107 240.711 338.255 241.263C339.404 241.54 351.751 248.171 365.534 255.632ZM473.787 270.276V300.119L446.795 314.487C431.864 322.5 418.942 329.132 418.081 329.132C417.22 329.132 416.358 316.145 416.358 300.119V271.382L443.062 256.184C457.42 247.619 470.341 240.987 471.777 240.711C472.925 240.711 473.787 253.974 473.787 270.276ZM275.945 362.842C290.015 370.855 301.501 378.04 301.501 378.869C301.501 379.697 290.015 386.882 275.658 394.619L249.815 408.987L223.972 394.619C209.902 386.882 198.129 379.697 198.129 378.869C198.129 377.487 246.369 349.026 249.241 348.474C249.815 348.474 261.875 354.829 275.945 362.842ZM221.962 423.079L238.329 431.921V462.04V492.434L232.012 489.119C228.279 487.184 215.358 480.276 203.298 473.645L180.9 461.211V430.816V400.421L193.248 407.329C199.852 410.921 212.773 418.105 221.962 423.079ZM318.729 431.092V461.211L296.619 473.645C284.272 480.276 271.351 487.184 267.905 489.119L261.301 492.434V462.04V431.921L289.441 416.448C304.659 408.158 317.581 401.25 318.155 400.974C318.442 400.974 318.729 414.513 318.729 431.092Z" fill="#AAAAAA"/>
</svg>
