<?xml version="1.0" standalone="no"?>
<!DOCTYPE svg PUBLIC "-//W3C//DTD SVG 20010904//EN"
 "http://www.w3.org/TR/2001/REC-SVG-20010904/DTD/svg10.dtd">
<svg version="1.0" xmlns="http://www.w3.org/2000/svg"
 width="2048.000000pt" height="2048.000000pt" viewBox="0 0 2048.000000 2048.000000"
 preserveAspectRatio="xMidYMid meet">

<g transform="translate(0.000000,2048.000000) scale(0.100000,-0.100000)"
fill="#000000" stroke="none">
<path d="M9785 20374 c-812 -43 -1545 -161 -2290 -369 -2349 -658 -4394 -2157
-5737 -4205 -708 -1079 -1207 -2290 -1457 -3537 -150 -747 -209 -1390 -198
-2173 6 -407 19 -637 57 -980 179 -1609 743 -3154 1645 -4500 748 -1117 1686
-2056 2800 -2802 1081 -724 2272 -1225 3560 -1497 1065 -224 2231 -272 3335
-135 943 117 1866 367 2750 746 237 102 734 348 963 477 1623 919 2948 2244
3868 3868 137 243 379 732 489 992 475 1118 739 2270 801 3501 22 444 2 1128
-46 1565 -184 1654 -737 3179 -1650 4545 -898 1345 -2097 2449 -3520 3244
-184 103 -572 296 -782 390 -1081 482 -2162 754 -3383 852 -184 15 -1025 27
-1205 18z m15 -3735 l0 -2461 -102 7 c-357 21 -458 29 -673 50 -798 80 -1526
224 -2310 457 -93 27 -171 51 -173 53 -6 6 174 398 303 660 484 979 1081 1857
1819 2675 266 294 675 697 959 944 81 70 91 76 132 76 l45 0 0 -2461z m1057
2385 c284 -247 690 -647 959 -944 859 -952 1563 -2042 2065 -3200 l59 -135
-58 -18 c-163 -52 -463 -135 -672 -187 -799 -199 -1523 -306 -2417 -355 l-113
-6 0 2460 0 2461 45 0 c41 0 51 -6 132 -76z m-2668 -163 c-8 -10 -78 -88 -155
-172 -581 -631 -1136 -1388 -1586 -2164 -249 -428 -470 -872 -712 -1427 l-25
-57 -153 63 c-365 150 -909 413 -1248 602 -303 169 -700 411 -700 427 0 25
487 518 705 714 1042 934 2304 1617 3640 1969 116 30 215 57 220 59 23 8 27 4
14 -14z m4231 -16 c1457 -362 2862 -1142 3955 -2195 203 -196 495 -501 495
-517 0 -9 -26 -27 -219 -146 -540 -334 -1226 -681 -1819 -921 l-63 -25 -25 57
c-246 565 -466 1003 -727 1452 -441 759 -998 1516 -1571 2139 -77 84 -148 162
-156 173 -13 19 -13 20 5 15 11 -3 67 -18 125 -32z m-9221 -3499 c633 -404
1346 -774 2056 -1066 72 -29 134 -57 138 -61 5 -3 -15 -78 -43 -165 -322 -992
-547 -2215 -585 -3179 -4 -82 -8 -160 -11 -172 l-4 -23 -1687 0 -1686 0 7 126
c3 69 15 216 26 327 137 1375 598 2705 1342 3871 93 146 290 435 297 436 2 0
69 -42 150 -94z m14338 -54 c862 -1251 1381 -2658 1532 -4157 11 -110 23 -257
27 -327 l7 -128 -1686 0 -1687 0 -4 23 c-2 12 -9 121 -16 242 -51 990 -251
2069 -567 3065 -31 96 -56 183 -57 193 -1 13 45 37 209 105 654 275 1268 591
1845 950 102 63 207 130 235 148 27 19 52 34 55 34 3 0 51 -67 107 -148z
m-11122 -1427 c987 -300 2060 -492 3055 -545 113 -6 233 -13 268 -16 l62 -6 0
-1309 0 -1309 -2085 0 -2085 0 5 73 c3 39 10 144 15 232 49 742 181 1538 376
2259 51 188 190 651 201 669 3 4 12 6 21 3 10 -3 85 -26 167 -51z m7887 -104
c236 -744 395 -1493 482 -2271 22 -193 39 -399 60 -732 l5 -78 -2084 0 -2085
0 0 1309 0 1309 63 6 c34 3 157 10 272 16 641 34 1411 140 2065 286 335 75
852 213 1095 293 33 11 64 19 69 17 5 -1 31 -71 58 -155z m-9547 -4088 c61
-1189 233 -2176 561 -3237 31 -98 52 -182 47 -186 -4 -5 -59 -29 -120 -54
-677 -277 -1418 -662 -2046 -1064 -81 -52 -150 -93 -151 -91 -25 28 -251 366
-335 500 -721 1154 -1165 2455 -1301 3806 -11 111 -23 258 -26 327 l-7 126
1685 0 1686 0 7 -127z m5045 -1182 l0 -1309 -72 -6 c-40 -3 -161 -10 -268 -16
-1019 -56 -2080 -249 -3125 -569 -71 -22 -131 -38 -134 -36 -8 8 -102 322
-161 535 -228 830 -361 1674 -406 2573 l-7 137 2087 0 2086 0 0 -1309z m5046
1172 c-47 -952 -195 -1846 -450 -2729 -90 -312 -116 -386 -131 -380 -41 15
-435 131 -600 176 -851 231 -1788 383 -2645 430 -107 6 -228 13 -267 16 l-73
6 0 1309 0 1309 2086 0 2087 0 -7 -137z m4250 10 c-9 -176 -41 -483 -72 -698
-192 -1349 -702 -2651 -1476 -3770 -61 -88 -112 -161 -113 -163 -2 -2 -54 29
-117 69 -707 451 -1265 739 -2185 1129 -13 5 -23 13 -23 17 0 5 20 73 45 153
151 481 288 1034 375 1515 105 584 157 1048 196 1758 l6 117 1685 0 1686 0 -7
-127z m-9296 -5835 l0 -2461 -106 6 -106 6 -76 68 c-1131 1009 -2120 2340
-2767 3723 -96 205 -235 522 -235 537 0 5 100 40 223 76 864 258 1741 418
2637 482 194 14 244 17 388 23 l42 2 0 -2462z m1315 2436 c891 -61 1813 -231
2681 -495 90 -27 165 -49 168 -49 13 0 3 -27 -68 -193 -662 -1538 -1697 -2982
-2928 -4080 l-76 -68 -106 -6 -106 -6 0 2462 0 2462 113 -6 c61 -4 207 -13
322 -21z m-5340 -1074 c372 -864 821 -1657 1373 -2420 248 -343 575 -747 840
-1038 52 -57 92 -105 90 -107 -2 -3 -85 18 -184 45 -1331 365 -2545 1029
-3580 1955 -216 193 -704 687 -704 712 0 16 400 260 700 428 379 211 1305 649
1358 642 8 -1 56 -99 107 -217z m9141 179 c363 -150 933 -425 1263 -609 306
-171 691 -407 691 -423 0 -10 -63 -78 -240 -262 -1010 -1047 -2234 -1819
-3595 -2269 -185 -61 -533 -163 -615 -181 l-35 -7 60 63 c33 35 106 116 161
179 918 1052 1647 2228 2177 3513 9 20 20 37 25 37 5 0 54 -18 108 -41z"/>
</g>
</svg>
