<svg width="507" height="98" viewBox="0 0 507 98" fill="none" xmlns="http://www.w3.org/2000/svg">
<path d="M16.92 73.792C12.648 73.792 9.456 72.616 7.344 70.264C5.232 67.864 4.176 64.312 4.176 59.608V27.136C4.176 25.312 4.632 23.944 5.544 23.032C6.504 22.072 7.872 21.592 9.648 21.592C11.376 21.592 12.696 22.072 13.608 23.032C14.568 23.944 15.048 25.312 15.048 27.136V59.176C15.048 61.144 15.456 62.608 16.272 63.568C17.136 64.48 18.264 64.936 19.656 64.936C20.04 64.936 20.4 64.912 20.736 64.864C21.072 64.816 21.432 64.792 21.816 64.792C22.584 64.696 23.112 64.936 23.4 65.512C23.736 66.04 23.904 67.12 23.904 68.752C23.904 70.192 23.616 71.296 23.04 72.064C22.464 72.784 21.576 73.264 20.376 73.504C19.896 73.552 19.344 73.6 18.72 73.648C18.096 73.744 17.496 73.792 16.92 73.792ZM46.161 73.792C41.985 73.792 38.385 73.048 35.361 71.56C32.385 70.024 30.081 67.888 28.449 65.152C26.865 62.368 26.073 59.104 26.073 55.36C26.073 51.712 26.841 48.52 28.377 45.784C29.913 43 32.049 40.84 34.785 39.304C37.569 37.72 40.713 36.928 44.217 36.928C46.761 36.928 49.065 37.36 51.129 38.224C53.193 39.04 54.969 40.24 56.457 41.824C57.945 43.36 59.073 45.256 59.841 47.512C60.609 49.72 60.993 52.192 60.993 54.928C60.993 55.84 60.705 56.536 60.129 57.016C59.553 57.448 58.713 57.664 57.609 57.664H35.001V52.048H53.145L51.993 53.056C51.993 51.088 51.705 49.456 51.129 48.16C50.553 46.816 49.713 45.808 48.609 45.136C47.553 44.464 46.233 44.128 44.649 44.128C42.873 44.128 41.361 44.536 40.113 45.352C38.865 46.168 37.905 47.344 37.233 48.88C36.561 50.416 36.225 52.264 36.225 54.424V55C36.225 58.648 37.065 61.336 38.745 63.064C40.473 64.792 43.017 65.656 46.377 65.656C47.529 65.656 48.849 65.512 50.337 65.224C51.825 64.936 53.217 64.48 54.513 63.856C55.617 63.328 56.601 63.16 57.465 63.352C58.329 63.496 59.001 63.88 59.481 64.504C59.961 65.128 60.225 65.848 60.273 66.664C60.369 67.48 60.201 68.296 59.769 69.112C59.337 69.88 58.617 70.528 57.609 71.056C55.977 71.968 54.129 72.64 52.065 73.072C50.049 73.552 48.081 73.792 46.161 73.792ZM84.3086 73.792C80.5166 73.792 77.2046 73.048 74.3726 71.56C71.5886 70.072 69.4286 67.936 67.8926 65.152C66.3566 62.368 65.5886 59.08 65.5886 55.288C65.5886 52.456 66.0206 49.912 66.8846 47.656C67.7486 45.4 68.9966 43.48 70.6286 41.896C72.3086 40.264 74.3006 39.04 76.6046 38.224C78.9086 37.36 81.4766 36.928 84.3086 36.928C88.1006 36.928 91.3886 37.672 94.1726 39.16C97.0046 40.648 99.1886 42.76 100.725 45.496C102.309 48.232 103.101 51.496 103.101 55.288C103.101 58.168 102.645 60.736 101.733 62.992C100.869 65.248 99.6206 67.192 97.9886 68.824C96.3566 70.456 94.3646 71.704 92.0126 72.568C89.7086 73.384 87.1406 73.792 84.3086 73.792ZM84.3086 65.656C85.8926 65.656 87.2606 65.272 88.4126 64.504C89.5646 63.736 90.4766 62.608 91.1486 61.12C91.8206 59.584 92.1566 57.64 92.1566 55.288C92.1566 51.784 91.4366 49.216 89.9966 47.584C88.5566 45.904 86.6606 45.064 84.3086 45.064C82.7726 45.064 81.4046 45.424 80.2046 46.144C79.0526 46.864 78.1406 47.992 77.4686 49.528C76.8446 51.016 76.5326 52.936 76.5326 55.288C76.5326 58.792 77.2526 61.408 78.6926 63.136C80.1326 64.816 82.0046 65.656 84.3086 65.656ZM115.187 86.608C113.411 86.608 112.043 86.128 111.083 85.168C110.171 84.256 109.715 82.888 109.715 81.064V42.544C109.715 40.768 110.171 39.424 111.083 38.512C112.043 37.552 113.363 37.072 115.043 37.072C116.819 37.072 118.163 37.552 119.075 38.512C119.987 39.424 120.443 40.768 120.443 42.544V47.44L119.651 44.632C120.371 42.328 121.811 40.48 123.971 39.088C126.179 37.648 128.699 36.928 131.531 36.928C134.603 36.928 137.291 37.672 139.595 39.16C141.947 40.648 143.771 42.76 145.067 45.496C146.363 48.232 147.011 51.496 147.011 55.288C147.011 59.08 146.363 62.368 145.067 65.152C143.771 67.936 141.971 70.072 139.667 71.56C137.363 73.048 134.651 73.792 131.531 73.792C128.747 73.792 126.275 73.12 124.115 71.776C121.955 70.384 120.491 68.584 119.723 66.376H120.587V81.064C120.587 82.888 120.107 84.256 119.147 85.168C118.235 86.128 116.915 86.608 115.187 86.608ZM128.291 65.656C129.827 65.656 131.171 65.272 132.323 64.504C133.523 63.736 134.435 62.608 135.059 61.12C135.731 59.584 136.067 57.64 136.067 55.288C136.067 51.784 135.347 49.216 133.907 47.584C132.467 45.904 130.595 45.064 128.291 45.064C126.755 45.064 125.387 45.424 124.187 46.144C123.035 46.864 122.123 47.992 121.451 49.528C120.779 51.016 120.443 52.936 120.443 55.288C120.443 58.792 121.163 61.408 122.603 63.136C124.043 64.816 125.939 65.656 128.291 65.656ZM165.612 73.792C163.02 73.792 160.692 73.288 158.628 72.28C156.564 71.272 154.956 69.904 153.804 68.176C152.652 66.448 152.076 64.504 152.076 62.344C152.076 59.752 152.748 57.712 154.092 56.224C155.436 54.688 157.62 53.608 160.644 52.984C163.668 52.312 167.676 51.976 172.668 51.976H176.484V57.592H172.74C170.292 57.592 168.3 57.736 166.764 58.024C165.276 58.264 164.196 58.696 163.524 59.32C162.9 59.944 162.588 60.808 162.588 61.912C162.588 63.256 163.044 64.36 163.956 65.224C164.916 66.088 166.284 66.52 168.06 66.52C169.452 66.52 170.676 66.208 171.732 65.584C172.836 64.912 173.7 64.024 174.324 62.92C174.948 61.768 175.26 60.472 175.26 59.032V50.752C175.26 48.64 174.78 47.152 173.82 46.288C172.86 45.376 171.228 44.92 168.924 44.92C167.628 44.92 166.212 45.088 164.676 45.424C163.188 45.712 161.532 46.216 159.708 46.936C158.652 47.416 157.716 47.536 156.9 47.296C156.084 47.008 155.46 46.528 155.028 45.856C154.596 45.136 154.38 44.368 154.38 43.552C154.38 42.688 154.62 41.872 155.1 41.104C155.58 40.288 156.372 39.688 157.476 39.304C159.732 38.392 161.844 37.768 163.812 37.432C165.828 37.096 167.676 36.928 169.356 36.928C173.052 36.928 176.076 37.48 178.428 38.584C180.828 39.64 182.628 41.296 183.828 43.552C185.028 45.76 185.628 48.616 185.628 52.12V68.104C185.628 69.88 185.196 71.248 184.332 72.208C183.468 73.168 182.22 73.648 180.588 73.648C178.956 73.648 177.684 73.168 176.772 72.208C175.908 71.248 175.476 69.88 175.476 68.104V65.44L175.98 65.872C175.692 67.504 175.068 68.92 174.108 70.12C173.196 71.272 172.02 72.184 170.58 72.856C169.14 73.48 167.484 73.792 165.612 73.792ZM207.275 73.792C205.163 73.792 202.979 73.6 200.723 73.216C198.515 72.832 196.499 72.184 194.675 71.272C193.715 70.792 193.019 70.192 192.587 69.472C192.203 68.704 192.035 67.936 192.083 67.168C192.131 66.4 192.371 65.704 192.803 65.08C193.283 64.456 193.883 64.048 194.603 63.856C195.371 63.616 196.211 63.688 197.123 64.072C199.091 64.888 200.891 65.464 202.523 65.8C204.155 66.136 205.763 66.304 207.347 66.304C209.411 66.304 210.899 65.992 211.811 65.368C212.771 64.696 213.251 63.832 213.251 62.776C213.251 61.816 212.939 61.096 212.315 60.616C211.691 60.136 210.779 59.8 209.579 59.608L202.019 58.24C199.043 57.712 196.739 56.632 195.107 55C193.523 53.32 192.731 51.184 192.731 48.592C192.731 46.192 193.403 44.128 194.747 42.4C196.091 40.624 197.939 39.28 200.291 38.368C202.691 37.408 205.403 36.928 208.427 36.928C210.587 36.928 212.579 37.12 214.403 37.504C216.227 37.888 217.979 38.512 219.659 39.376C220.523 39.808 221.123 40.384 221.459 41.104C221.843 41.824 221.963 42.568 221.819 43.336C221.723 44.104 221.435 44.8 220.955 45.424C220.475 46.048 219.851 46.456 219.083 46.648C218.363 46.84 217.523 46.744 216.563 46.36C215.027 45.64 213.611 45.136 212.315 44.848C211.019 44.512 209.771 44.344 208.57 44.344C206.411 44.344 204.851 44.704 203.891 45.424C202.931 46.096 202.451 46.96 202.451 48.016C202.451 48.832 202.715 49.528 203.243 50.104C203.819 50.632 204.683 50.992 205.835 51.184L213.395 52.552C216.515 53.08 218.891 54.136 220.523 55.72C222.155 57.256 222.971 59.368 222.971 62.056C222.971 65.704 221.531 68.584 218.651 70.696C215.819 72.76 212.027 73.792 207.275 73.792ZM242.712 73.792C240.6 73.792 238.416 73.6 236.16 73.216C233.952 72.832 231.936 72.184 230.112 71.272C229.152 70.792 228.456 70.192 228.024 69.472C227.64 68.704 227.472 67.936 227.52 67.168C227.568 66.4 227.808 65.704 228.24 65.08C228.72 64.456 229.32 64.048 230.04 63.856C230.808 63.616 231.648 63.688 232.56 64.072C234.528 64.888 236.328 65.464 237.96 65.8C239.592 66.136 241.2 66.304 242.784 66.304C244.848 66.304 246.336 65.992 247.248 65.368C248.208 64.696 248.688 63.832 248.688 62.776C248.688 61.816 248.376 61.096 247.752 60.616C247.128 60.136 246.216 59.8 245.016 59.608L237.456 58.24C234.48 57.712 232.176 56.632 230.544 55C228.96 53.32 228.168 51.184 228.168 48.592C228.168 46.192 228.84 44.128 230.184 42.4C231.528 40.624 233.376 39.28 235.728 38.368C238.128 37.408 240.84 36.928 243.864 36.928C246.024 36.928 248.016 37.12 249.84 37.504C251.664 37.888 253.416 38.512 255.096 39.376C255.96 39.808 256.56 40.384 256.896 41.104C257.28 41.824 257.4 42.568 257.256 43.336C257.16 44.104 256.872 44.8 256.392 45.424C255.912 46.048 255.288 46.456 254.52 46.648C253.8 46.84 252.96 46.744 252 46.36C250.464 45.64 249.048 45.136 247.752 44.848C246.456 44.512 245.208 44.344 244.008 44.344C241.848 44.344 240.288 44.704 239.328 45.424C238.368 46.096 237.888 46.96 237.888 48.016C237.888 48.832 238.152 49.528 238.68 50.104C239.256 50.632 240.12 50.992 241.272 51.184L248.832 52.552C251.952 53.08 254.328 54.136 255.96 55.72C257.592 57.256 258.408 59.368 258.408 62.056C258.408 65.704 256.968 68.584 254.088 70.696C251.256 72.76 247.464 73.792 242.712 73.792ZM281.605 73.792C277.814 73.792 274.502 73.048 271.67 71.56C268.886 70.072 266.726 67.936 265.189 65.152C263.654 62.368 262.886 59.08 262.886 55.288C262.886 52.456 263.318 49.912 264.182 47.656C265.046 45.4 266.294 43.48 267.926 41.896C269.606 40.264 271.598 39.04 273.902 38.224C276.206 37.36 278.774 36.928 281.605 36.928C285.398 36.928 288.686 37.672 291.47 39.16C294.302 40.648 296.486 42.76 298.022 45.496C299.606 48.232 300.398 51.496 300.398 55.288C300.398 58.168 299.942 60.736 299.03 62.992C298.166 65.248 296.918 67.192 295.286 68.824C293.654 70.456 291.662 71.704 289.31 72.568C287.006 73.384 284.438 73.792 281.605 73.792ZM281.605 65.656C283.19 65.656 284.558 65.272 285.71 64.504C286.862 63.736 287.774 62.608 288.446 61.12C289.118 59.584 289.454 57.64 289.454 55.288C289.454 51.784 288.734 49.216 287.294 47.584C285.854 45.904 283.958 45.064 281.605 45.064C280.07 45.064 278.702 45.424 277.502 46.144C276.35 46.864 275.438 47.992 274.766 49.528C274.142 51.016 273.83 52.936 273.83 55.288C273.83 58.792 274.55 61.408 275.99 63.136C277.43 64.816 279.302 65.656 281.605 65.656ZM320.548 73.792C318.436 73.792 316.252 73.6 313.996 73.216C311.788 72.832 309.772 72.184 307.948 71.272C306.988 70.792 306.292 70.192 305.86 69.472C305.476 68.704 305.308 67.936 305.356 67.168C305.404 66.4 305.644 65.704 306.076 65.08C306.556 64.456 307.156 64.048 307.876 63.856C308.644 63.616 309.484 63.688 310.396 64.072C312.364 64.888 314.164 65.464 315.796 65.8C317.428 66.136 319.036 66.304 320.62 66.304C322.684 66.304 324.172 65.992 325.084 65.368C326.044 64.696 326.524 63.832 326.524 62.776C326.524 61.816 326.212 61.096 325.588 60.616C324.964 60.136 324.052 59.8 322.852 59.608L315.292 58.24C312.316 57.712 310.012 56.632 308.38 55C306.796 53.32 306.004 51.184 306.004 48.592C306.004 46.192 306.676 44.128 308.02 42.4C309.364 40.624 311.212 39.28 313.564 38.368C315.964 37.408 318.676 36.928 321.7 36.928C323.86 36.928 325.852 37.12 327.676 37.504C329.5 37.888 331.252 38.512 332.932 39.376C333.796 39.808 334.396 40.384 334.732 41.104C335.116 41.824 335.236 42.568 335.092 43.336C334.996 44.104 334.708 44.8 334.228 45.424C333.748 46.048 333.124 46.456 332.356 46.648C331.636 46.84 330.796 46.744 329.836 46.36C328.3 45.64 326.884 45.136 325.588 44.848C324.292 44.512 323.044 44.344 321.844 44.344C319.684 44.344 318.124 44.704 317.164 45.424C316.204 46.096 315.724 46.96 315.724 48.016C315.724 48.832 315.988 49.528 316.516 50.104C317.092 50.632 317.956 50.992 319.108 51.184L326.668 52.552C329.788 53.08 332.164 54.136 333.796 55.72C335.428 57.256 336.244 59.368 336.244 62.056C336.244 65.704 334.804 68.584 331.924 70.696C329.092 72.76 325.3 73.792 320.548 73.792Z" fill="#FBFBFB"/>
<path d="M418.52 72C416.264 72 414.536 71.424 413.336 70.272C412.184 69.072 411.608 67.368 411.608 65.16V28.08C411.608 25.872 412.184 24.192 413.336 23.04C414.536 21.84 416.264 21.24 418.52 21.24H442.928C444.656 21.24 445.952 21.672 446.816 22.536C447.68 23.4 448.112 24.648 448.112 26.28C448.112 27.96 447.68 29.256 446.816 30.168C445.952 31.032 444.656 31.464 442.928 31.464H424.28V41.112H441.344C443.024 41.112 444.296 41.544 445.16 42.408C446.072 43.272 446.528 44.544 446.528 46.224C446.528 47.904 446.072 49.176 445.16 50.04C444.296 50.904 443.024 51.336 441.344 51.336H424.28V61.776H442.928C444.656 61.776 445.952 62.232 446.816 63.144C447.68 64.008 448.112 65.256 448.112 66.888C448.112 68.568 447.68 69.84 446.816 70.704C445.952 71.568 444.656 72 442.928 72H418.52ZM478.151 72.648C476.327 72.648 474.839 72.264 473.687 71.496C472.583 70.728 471.647 69.504 470.879 67.824L453.455 29.376C452.687 27.696 452.447 26.184 452.735 24.84C453.023 23.496 453.695 22.464 454.751 21.744C455.807 20.976 457.127 20.592 458.711 20.592C460.679 20.592 462.143 21.024 463.103 21.888C464.111 22.752 464.975 24.024 465.695 25.704L480.383 59.688H476.351L491.039 25.632C491.759 23.952 492.623 22.704 493.631 21.888C494.639 21.024 496.055 20.592 497.879 20.592C499.367 20.592 500.615 20.976 501.623 21.744C502.631 22.464 503.255 23.496 503.495 24.84C503.783 26.184 503.543 27.696 502.775 29.376L485.279 67.824C484.559 69.504 483.647 70.728 482.543 71.496C481.439 72.264 479.975 72.648 478.151 72.648Z" fill="#FFB442"/>
<path d="M376.296 22.0119C374.943 22.2825 374.328 22.6268 373.197 23.7091C372.041 24.7913 371.623 25.5292 371.278 27.1526C370.934 28.776 371.328 30.7437 372.262 32.0228C372.631 32.5393 376.886 36.1058 381.707 39.9184C386.528 43.7555 390.489 46.9776 390.489 47.076C390.489 47.1744 386.627 50.3228 381.929 54.0369C377.206 57.7756 373 61.2192 372.582 61.7111C372.164 62.203 371.623 63.2115 371.401 63.974C370.467 67.1716 372.041 70.3692 375.214 71.7712C376.641 72.3861 379.445 72.2631 380.724 71.5252C381.511 71.0579 385.545 67.8849 400.696 55.8571C405.788 51.8232 406.87 50.7409 407.411 49.093C408.026 47.322 407.632 44.7639 406.476 43.1651C405.862 42.3042 381.634 23.0696 380.428 22.5038C379.297 21.9627 377.6 21.7659 376.296 22.0119Z" fill="#FFB442"/>
<path d="M352.486 59.5878C349.608 60.6036 347.891 62.9739 347.939 65.8763C347.963 68.2466 349.221 70.3267 351.325 71.4635C352.438 72.0682 352.897 72.1649 354.349 72.1649C360.395 72.1165 363.153 65.0782 358.726 61.0148C357.033 59.4426 354.494 58.8622 352.486 59.5878Z" fill="#FFB442"/>
</svg>
