<svg width="637" height="494" viewBox="0 0 637 494" fill="none" xmlns="http://www.w3.org/2000/svg">
<mask id="path-1-outside-1_149_11" maskUnits="userSpaceOnUse" x="10" y="19" width="613" height="457" fill="black">
<rect fill="white" x="10" y="19" width="613" height="457"/>
<path d="M130.05 460.1C120.45 459.8 110.55 458.15 100.35 455.15C90.45 452.15 82.05 446.3 75.15 437.6C68.55 429.2 65.25 416.6 65.25 399.8C65.25 389 65.55 377.3 66.15 364.7C66.75 352.4 67.35 340.25 67.95 328.25C68.55 315.95 68.85 304.85 68.85 294.95C68.85 289.55 68.25 284.15 67.05 278.75C65.85 273.05 62.55 268.25 57.15 264.35C51.75 260.15 42.9 257.45 30.6 256.25C29.1 255.95 27.9 254.9 27 253.1C26.1 251 25.65 249.2 25.65 247.7C25.65 246.2 26.1 244.55 27 242.75C27.9 240.65 29.1 239.45 30.6 239.15C42.9 237.95 51.75 235.25 57.15 231.05C62.55 226.85 65.85 222.05 67.05 216.65C68.25 210.95 68.85 205.55 68.85 200.45C68.85 190.25 68.55 179.15 67.95 167.15C67.35 154.85 66.75 142.7 66.15 130.7C65.55 118.4 65.25 107.3 65.25 97.4C65.25 80.3 68.55 67.4 75.15 58.7C81.75 49.7 89.85 43.55 99.45 40.25C109.35 36.95 119.1 35.15 128.7 34.85C131.1 34.85 133.05 35 134.55 35.3C136.35 35.6 137.4 37.85 137.7 42.05C137.7 43.85 137.1 45.5 135.9 47C135 48.5 133.35 49.55 130.95 50.15C120.75 51.95 113.1 54.95 108 59.15C102.9 63.35 99.6 68.45 98.1 74.45C96.6 80.15 95.85 86.3 95.85 92.9C95.85 102.8 96.3 113.6 97.2 125.3C98.4 137 99.45 148.85 100.35 160.85C101.55 172.55 102.15 183.35 102.15 193.25C102.15 205.85 99.15 217.25 93.15 227.45C87.15 237.35 77.1 243.8 63 246.8V248.6C77.1 251.6 87.15 258.05 93.15 267.95C99.15 277.85 102.15 289.25 102.15 302.15C102.15 312.35 101.55 323.3 100.35 335C99.45 346.7 98.4 358.25 97.2 369.65C96.3 381.05 95.85 391.55 95.85 401.15C95.85 411.35 97.65 420.35 101.25 428.15C104.85 436.25 114 441.8 128.7 444.8C131.1 445.1 133.05 445.55 134.55 446.15C136.35 446.75 137.4 448.7 137.7 452C138 454.1 137.55 455.9 136.35 457.4C135.15 459.2 133.05 460.1 130.05 460.1ZM206.455 367.4C198.355 367.4 191.605 364.85 186.205 359.75C180.805 354.35 178.105 347.45 178.105 339.05C178.105 331.25 180.805 324.65 186.205 319.25C191.605 313.85 198.505 311.15 206.905 311.15C215.005 311.15 221.755 313.85 227.155 319.25C232.855 324.65 235.705 331.25 235.705 339.05C235.705 347.45 232.855 354.35 227.155 359.75C221.755 364.85 214.855 367.4 206.455 367.4ZM316.406 367.4C308.306 367.4 301.556 364.85 296.156 359.75C290.756 354.35 288.056 347.45 288.056 339.05C288.056 331.25 290.756 324.65 296.156 319.25C301.556 313.85 308.456 311.15 316.856 311.15C324.956 311.15 331.706 313.85 337.106 319.25C342.806 324.65 345.656 331.25 345.656 339.05C345.656 347.45 342.806 354.35 337.106 359.75C331.706 364.85 324.806 367.4 316.406 367.4ZM426.357 367.4C418.257 367.4 411.507 364.85 406.107 359.75C400.707 354.35 398.007 347.45 398.007 339.05C398.007 331.25 400.707 324.65 406.107 319.25C411.507 313.85 418.407 311.15 426.807 311.15C434.907 311.15 441.657 313.85 447.057 319.25C452.757 324.65 455.607 331.25 455.607 339.05C455.607 347.45 452.757 354.35 447.057 359.75C441.657 364.85 434.757 367.4 426.357 367.4ZM503.009 460.1C500.009 460.1 497.909 459.2 496.709 457.4C495.509 455.9 495.059 454.1 495.359 452C495.659 448.7 496.709 446.75 498.509 446.15C500.309 445.55 502.259 445.1 504.359 444.8C519.059 441.8 528.209 436.25 531.809 428.15C535.409 420.35 537.209 411.35 537.209 401.15C537.209 391.55 536.609 381.05 535.409 369.65C534.509 358.25 533.459 346.7 532.259 335C531.359 323.3 530.909 312.35 530.909 302.15C530.909 289.25 533.909 277.85 539.909 267.95C546.209 258.05 556.259 251.6 570.059 248.6V246.8C555.959 243.8 545.909 237.35 539.909 227.45C533.909 217.25 530.909 205.85 530.909 193.25C530.909 183.35 531.359 172.55 532.259 160.85C533.459 148.85 534.509 137 535.409 125.3C536.609 113.6 537.209 102.8 537.209 92.9C537.209 86.3 536.459 80.15 534.959 74.45C533.459 68.45 530.159 63.35 525.059 59.15C520.259 54.95 512.609 51.95 502.109 50.15C499.709 49.55 497.909 48.5 496.709 47C495.809 45.5 495.359 43.85 495.359 42.05C495.659 37.85 496.709 35.6 498.509 35.3C500.309 35 502.259 34.85 504.359 34.85C513.959 35.15 523.559 36.95 533.159 40.25C543.059 43.55 551.309 49.7 557.909 58.7C564.509 67.4 567.809 80.3 567.809 97.4C567.809 107.3 567.509 118.4 566.909 130.7C566.309 142.7 565.709 154.85 565.109 167.15C564.509 179.15 564.209 190.25 564.209 200.45C564.209 205.55 564.809 210.95 566.009 216.65C567.209 222.05 570.509 226.85 575.909 231.05C581.309 235.25 590.159 237.95 602.459 239.15C603.959 239.45 605.159 240.65 606.059 242.75C606.959 244.55 607.409 246.2 607.409 247.7C607.409 249.2 606.959 251 606.059 253.1C605.159 254.9 603.959 255.95 602.459 256.25C590.159 257.45 581.309 260.15 575.909 264.35C570.509 268.25 567.209 273.05 566.009 278.75C564.809 284.15 564.209 289.55 564.209 294.95C564.209 304.85 564.509 315.95 565.109 328.25C565.709 340.25 566.309 352.4 566.909 364.7C567.509 377.3 567.809 389 567.809 399.8C567.809 416.6 564.359 429.2 557.459 437.6C550.859 446.3 542.609 452.15 532.709 455.15C522.809 458.15 512.909 459.8 503.009 460.1Z"/>
</mask>
<path d="M130.05 460.1L129.581 475.093L129.816 475.1H130.05V460.1ZM100.35 455.15L95.9999 469.505L96.0586 469.523L96.1175 469.54L100.35 455.15ZM75.15 437.6L63.3552 446.867L63.3763 446.894L63.3975 446.921L75.15 437.6ZM66.15 364.7L51.1678 363.969L51.1674 363.978L51.167 363.987L66.15 364.7ZM67.95 328.25L82.9313 328.999L82.9317 328.99L82.9322 328.981L67.95 328.25ZM67.05 278.75L52.3718 281.84L52.389 281.922L52.4072 282.004L67.05 278.75ZM57.15 264.35L47.9409 276.19L48.1514 276.354L48.3676 276.51L57.15 264.35ZM30.6 256.25L27.6583 270.959L28.3954 271.106L29.1435 271.179L30.6 256.25ZM27 253.1L13.2128 259.009L13.3865 259.414L13.5836 259.808L27 253.1ZM27 242.75L40.4164 249.458L40.6135 249.064L40.7872 248.659L27 242.75ZM30.6 239.15L29.1435 224.221L28.3954 224.294L27.6583 224.441L30.6 239.15ZM57.15 231.05L66.3591 242.89L57.15 231.05ZM67.05 216.65L81.6928 219.904L81.711 219.822L81.7282 219.74L67.05 216.65ZM67.95 167.15L52.9678 167.881L52.9683 167.89L52.9687 167.899L67.95 167.15ZM66.15 130.7L51.1678 131.431L51.1683 131.44L51.1687 131.449L66.15 130.7ZM75.15 58.7L87.1004 67.7658L87.174 67.6687L87.2461 67.5704L75.15 58.7ZM99.45 40.25L94.7066 26.0197L94.6401 26.0419L94.5738 26.0647L99.45 40.25ZM128.7 34.85V19.85H128.466L128.231 19.8573L128.7 34.85ZM134.55 35.3L131.608 50.0087L131.845 50.0561L132.084 50.0959L134.55 35.3ZM137.7 42.05H152.7V41.515L152.662 40.9813L137.7 42.05ZM135.9 47L124.187 37.6296L123.557 38.4174L123.038 39.2825L135.9 47ZM130.95 50.15L133.557 64.9217L134.076 64.8301L134.588 64.7021L130.95 50.15ZM108 59.15L98.4644 47.571L98.4644 47.571L108 59.15ZM98.1 74.45L112.606 78.2674L112.63 78.1778L112.652 78.088L98.1 74.45ZM97.2 125.3L82.2442 126.45L82.2588 126.641L82.2783 126.83L97.2 125.3ZM100.35 160.85L85.392 161.972L85.4074 162.176L85.4283 162.38L100.35 160.85ZM93.15 227.45L105.978 235.225L106.029 235.14L106.079 235.055L93.15 227.45ZM63 246.8L59.8784 232.128L48 234.656V246.8H63ZM63 248.6H48V260.744L59.8784 263.272L63 248.6ZM93.15 267.95L105.978 260.175L105.978 260.175L93.15 267.95ZM100.35 335L85.4283 333.47L85.4088 333.659L85.3942 333.85L100.35 335ZM97.2 369.65L82.2824 368.08L82.2619 368.274L82.2465 368.469L97.2 369.65ZM101.25 428.15L114.957 422.058L114.914 421.961L114.869 421.864L101.25 428.15ZM128.7 444.8L125.701 459.497L126.266 459.613L126.84 459.684L128.7 444.8ZM134.55 446.15L128.979 460.077L129.388 460.241L129.807 460.38L134.55 446.15ZM137.7 452L122.762 453.358L122.796 453.741L122.851 454.121L137.7 452ZM136.35 457.4L124.637 448.03L124.23 448.538L123.869 449.079L136.35 457.4ZM130.519 445.107C122.321 444.851 113.688 443.437 104.582 440.76L96.1175 469.54C107.412 472.863 118.579 474.749 129.581 475.093L130.519 445.107ZM104.7 440.795C97.9406 438.746 92.0517 434.772 86.9025 428.279L63.3975 446.921C72.0483 457.828 82.9594 465.554 95.9999 469.505L104.7 440.795ZM86.9448 428.333C83.3133 423.711 80.25 415.044 80.25 399.8H50.25C50.25 418.156 53.7867 434.689 63.3552 446.867L86.9448 428.333ZM80.25 399.8C80.25 389.273 80.5425 377.814 81.133 365.413L51.167 363.987C50.5575 376.786 50.25 388.727 50.25 399.8H80.25ZM81.1322 365.431C81.7319 353.137 82.3316 340.993 82.9313 328.999L52.9687 327.501C52.3684 339.507 51.7681 351.663 51.1678 363.969L81.1322 365.431ZM82.9322 328.981C83.5413 316.493 83.85 305.144 83.85 294.95H53.85C53.85 304.556 53.5587 315.407 52.9678 327.519L82.9322 328.981ZM83.85 294.95C83.85 288.429 83.1244 281.938 81.6928 275.496L52.4072 282.004C53.3756 286.362 53.85 290.671 53.85 294.95H83.85ZM81.7282 275.66C79.649 265.784 73.8925 257.939 65.9324 252.19L48.3676 276.51C51.2075 278.561 52.051 280.316 52.3718 281.84L81.7282 275.66ZM66.3591 252.51C57.5515 245.659 45.2156 242.605 32.0565 241.321L29.1435 271.179C40.5844 272.295 45.9485 274.641 47.9409 276.19L66.3591 252.51ZM33.5417 241.541C35.474 241.928 37.1664 242.823 38.4526 243.949C39.6475 244.994 40.215 245.989 40.4164 246.392L13.5836 259.808C15.8464 264.334 20.2661 269.48 27.6583 270.959L33.5417 241.541ZM40.7872 247.191C40.6886 246.961 40.6241 246.79 40.5842 246.675C40.544 246.559 40.534 246.514 40.5396 246.537C40.5451 246.559 40.5713 246.668 40.5968 246.855C40.6223 247.042 40.65 247.328 40.65 247.7H10.65C10.65 252.01 11.89 255.922 13.2128 259.009L40.7872 247.191ZM40.65 247.7C40.65 249.184 40.2184 249.854 40.4164 249.458L13.5836 236.042C11.9816 239.246 10.65 243.216 10.65 247.7H40.65ZM40.7872 248.659C40.7302 248.792 40.31 249.753 39.1816 250.882C37.9256 252.138 36.009 253.365 33.5417 253.859L27.6583 224.441C19.2464 226.124 15.0457 232.565 13.2128 236.841L40.7872 248.659ZM32.0565 254.079C45.2156 252.795 57.5515 249.741 66.3591 242.89L47.9409 219.21C45.9485 220.759 40.5844 223.105 29.1435 224.221L32.0565 254.079ZM66.3591 242.89C73.8416 237.071 79.5694 229.459 81.6928 219.904L52.4072 213.396C52.1306 214.641 51.2584 216.629 47.9409 219.21L66.3591 242.89ZM81.7282 219.74C83.1126 213.164 83.85 206.723 83.85 200.45H53.85C53.85 204.377 53.3874 208.736 52.3718 213.56L81.7282 219.74ZM83.85 200.45C83.85 189.961 83.5416 178.608 82.9313 166.401L52.9687 167.899C53.5584 179.692 53.85 190.539 53.85 200.45H83.85ZM82.9322 166.419C82.3319 154.113 81.7316 141.957 81.1313 129.951L51.1687 131.449C51.7684 143.443 52.3681 155.587 52.9678 167.881L82.9322 166.419ZM81.1322 129.969C80.5413 117.857 80.25 107.006 80.25 97.4H50.25C50.25 107.594 50.5587 118.943 51.1678 131.431L81.1322 129.969ZM80.25 97.4C80.25 81.8406 83.3187 72.7508 87.1004 67.7658L63.1996 49.6342C53.7813 62.0492 50.25 78.7594 50.25 97.4H80.25ZM87.2461 67.5704C92.2257 60.7801 97.9053 56.6425 104.326 54.4353L94.5738 26.0647C81.7947 30.4575 71.2743 38.6199 63.0539 49.8295L87.2461 67.5704ZM104.193 54.4802C112.832 51.6008 121.143 50.0935 129.169 49.8427L128.231 19.8573C117.057 20.2065 105.868 22.2992 94.7066 26.0197L104.193 54.4802ZM128.7 49.85C129.598 49.85 130.294 49.8784 130.812 49.9183C131.067 49.9379 131.261 49.959 131.4 49.9771C131.469 49.9861 131.521 49.9938 131.556 49.9996C131.592 50.0054 131.609 50.0088 131.608 50.0087L137.492 20.5913C134.639 20.0207 131.598 19.85 128.7 19.85V49.85ZM132.084 50.0959C129.592 49.6807 127.413 48.5508 125.757 47.0693C124.224 45.6969 123.445 44.3071 123.095 43.5558C122.488 42.2564 122.641 41.7549 122.738 43.1187L152.662 40.9813C152.459 38.145 151.937 34.4186 150.28 30.8692C148.49 27.0325 144.442 21.7417 137.016 20.5041L132.084 50.0959ZM122.7 42.05C122.7 41.2465 122.84 40.371 123.153 39.5114C123.461 38.6636 123.862 38.0355 124.187 37.6296L147.613 56.3704C150.787 52.4024 152.7 47.4937 152.7 42.05H122.7ZM123.038 39.2825C123.921 37.8104 125.029 36.8336 125.934 36.2576C126.364 35.9843 126.719 35.8184 126.95 35.7242C127.18 35.6306 127.311 35.5981 127.312 35.5979L134.588 64.7021C139.231 63.5413 145.094 60.8319 148.762 54.7175L123.038 39.2825ZM128.343 35.3782C116.91 37.3959 106.384 41.0487 98.4644 47.571L117.536 70.7289C119.816 68.8513 124.59 66.504 133.557 64.9217L128.343 35.3782ZM98.4644 47.571C91.065 53.6647 85.8815 61.4776 83.5479 70.8119L112.652 78.088C113.319 75.4224 114.735 73.0353 117.536 70.7289L98.4644 47.571ZM83.5939 70.6326C81.7295 77.7171 80.85 85.1632 80.85 92.9H110.85C110.85 87.4368 111.47 82.5829 112.606 78.2674L83.5939 70.6326ZM80.85 92.9C80.85 103.246 81.32 114.435 82.2442 126.45L112.156 124.15C111.28 112.765 110.85 102.354 110.85 92.9H80.85ZM82.2783 126.83C83.464 138.391 84.502 150.105 85.392 161.972L115.308 159.728C114.398 147.595 113.336 135.609 112.122 123.77L82.2783 126.83ZM85.4283 162.38C86.5855 173.663 87.15 183.945 87.15 193.25H117.15C117.15 182.755 116.515 171.437 115.272 159.32L85.4283 162.38ZM87.15 193.25C87.15 203.355 84.7767 212.1 80.221 219.845L106.079 235.055C113.523 222.4 117.15 208.345 117.15 193.25H87.15ZM80.322 219.675C76.9711 225.204 70.9905 229.764 59.8784 232.128L66.1216 261.472C83.2095 257.836 97.3289 249.496 105.978 235.225L80.322 219.675ZM48 246.8V248.6H78V246.8H48ZM59.8784 263.272C70.9905 265.636 76.9711 270.196 80.322 275.725L105.978 260.175C97.3289 245.904 83.2095 237.564 66.1216 233.928L59.8784 263.272ZM80.322 275.725C84.743 283.019 87.15 291.669 87.15 302.15H117.15C117.15 286.831 113.557 272.681 105.978 260.175L80.322 275.725ZM87.15 302.15C87.15 311.769 86.5838 322.203 85.4283 333.47L115.272 336.53C116.516 324.397 117.15 312.931 117.15 302.15H87.15ZM85.3942 333.85C84.5047 345.413 83.4674 356.823 82.2824 368.08L112.118 371.22C113.333 359.677 114.395 347.987 115.306 336.15L85.3942 333.85ZM82.2465 368.469C81.3212 380.191 80.85 391.09 80.85 401.15H110.85C110.85 392.01 111.279 381.909 112.153 370.831L82.2465 368.469ZM80.85 401.15C80.85 413.119 82.9666 424.33 87.6306 434.436L114.869 421.864C112.333 416.37 110.85 409.581 110.85 401.15H80.85ZM87.5428 434.242C94.1581 449.127 109.516 456.194 125.701 459.497L131.699 430.103C118.484 427.406 115.542 423.373 114.957 422.058L87.5428 434.242ZM126.84 459.684C127.632 459.783 128.204 459.889 128.59 459.978C128.984 460.069 129.088 460.121 128.979 460.077L140.121 432.223C136.998 430.974 133.669 430.304 130.561 429.916L126.84 459.684ZM129.807 460.38C126.481 459.272 124.443 456.961 123.48 455.174C122.692 453.71 122.712 452.816 122.762 453.358L152.638 450.642C152.229 446.134 150.18 435.549 139.293 431.92L129.807 460.38ZM122.851 454.121C122.765 453.524 122.727 452.52 123.035 451.287C123.352 450.02 123.938 448.903 124.637 448.03L148.063 466.77C152.134 461.681 153.367 455.604 152.549 449.879L122.851 454.121ZM123.869 449.079C124.976 447.419 126.499 446.266 127.966 445.638C128.63 445.353 129.175 445.221 129.524 445.16C129.7 445.128 129.835 445.114 129.921 445.107C129.964 445.103 129.997 445.102 130.018 445.101C130.029 445.1 130.037 445.1 130.042 445.1C130.045 445.1 130.047 445.1 130.048 445.1C130.049 445.1 130.049 445.1 130.05 445.1C130.05 445.1 130.05 445.1 130.05 445.1C130.048 445.1 130.051 445.1 130.05 445.1C130.049 445.1 130.051 445.1 130.05 445.1V475.1C135.947 475.1 143.85 473.192 148.831 465.721L123.869 449.079ZM186.205 359.75L175.598 370.357L175.75 370.508L175.906 370.655L186.205 359.75ZM186.205 319.25L196.812 329.857L196.812 329.857L186.205 319.25ZM227.155 319.25L216.548 329.857L216.692 330L216.839 330.139L227.155 319.25ZM227.155 359.75L237.454 370.655L237.463 370.647L237.471 370.639L227.155 359.75ZM206.455 352.4C201.807 352.4 198.856 351.066 196.504 348.845L175.906 370.655C184.354 378.634 194.904 382.4 206.455 382.4V352.4ZM196.812 349.143C194.519 346.851 193.105 343.909 193.105 339.05H163.105C163.105 350.991 167.091 361.849 175.598 370.357L196.812 349.143ZM193.105 339.05C193.105 335.133 194.291 332.377 196.812 329.857L175.598 308.643C167.319 316.923 163.105 327.367 163.105 339.05H193.105ZM196.812 329.857C199.104 327.564 202.046 326.15 206.905 326.15V296.15C194.964 296.15 184.106 300.136 175.598 308.643L196.812 329.857ZM206.905 326.15C211.295 326.15 214.145 327.454 216.548 329.857L237.762 308.643C229.365 300.246 218.716 296.15 206.905 296.15V326.15ZM216.839 330.139C219.571 332.728 220.705 335.4 220.705 339.05H250.705C250.705 327.1 246.139 316.572 237.471 308.361L216.839 330.139ZM220.705 339.05C220.705 343.652 219.323 346.507 216.839 348.861L237.471 370.639C246.387 362.193 250.705 351.248 250.705 339.05H220.705ZM216.856 348.845C214.611 350.965 211.567 352.4 206.455 352.4V382.4C218.143 382.4 228.9 378.735 237.454 370.655L216.856 348.845ZM296.156 359.75L285.55 370.357L285.701 370.508L285.857 370.655L296.156 359.75ZM296.156 319.25L306.763 329.857L306.763 329.857L296.156 319.25ZM337.106 319.25L326.5 329.857L326.643 330L326.79 330.139L337.106 319.25ZM337.106 359.75L347.406 370.655L347.414 370.647L347.422 370.639L337.106 359.75ZM316.406 352.4C311.758 352.4 308.808 351.066 306.456 348.845L285.857 370.655C294.305 378.634 304.855 382.4 316.406 382.4V352.4ZM306.763 349.143C304.47 346.851 303.056 343.909 303.056 339.05H273.056C273.056 350.991 277.042 361.849 285.55 370.357L306.763 349.143ZM303.056 339.05C303.056 335.133 304.243 332.377 306.763 329.857L285.55 308.643C277.27 316.923 273.056 327.367 273.056 339.05H303.056ZM306.763 329.857C309.055 327.564 311.998 326.15 316.856 326.15V296.15C304.915 296.15 294.057 300.136 285.55 308.643L306.763 329.857ZM316.856 326.15C321.246 326.15 324.097 327.454 326.5 329.857L347.713 308.643C339.316 300.246 328.667 296.15 316.856 296.15V326.15ZM326.79 330.139C329.522 332.728 330.656 335.4 330.656 339.05H360.656C360.656 327.1 356.09 316.572 347.422 308.361L326.79 330.139ZM330.656 339.05C330.656 343.652 329.275 346.507 326.79 348.861L347.422 370.639C356.338 362.193 360.656 351.248 360.656 339.05H330.656ZM326.807 348.845C324.562 350.965 321.518 352.4 316.406 352.4V382.4C328.095 382.4 338.851 378.735 347.406 370.655L326.807 348.845ZM406.107 359.75L395.501 370.357L395.652 370.508L395.808 370.655L406.107 359.75ZM406.107 319.25L416.714 329.857L416.714 329.857L406.107 319.25ZM447.057 319.25L436.451 329.857L436.594 330L436.741 330.139L447.057 319.25ZM447.057 359.75L457.357 370.655L457.365 370.647L457.374 370.639L447.057 359.75ZM426.357 352.4C421.709 352.4 418.759 351.066 416.407 348.845L395.808 370.655C404.256 378.634 414.806 382.4 426.357 382.4V352.4ZM416.714 349.143C414.422 346.851 413.007 343.909 413.007 339.05H383.007C383.007 350.991 386.993 361.849 395.501 370.357L416.714 349.143ZM413.007 339.05C413.007 335.133 414.194 332.377 416.714 329.857L395.501 308.643C387.221 316.923 383.007 327.367 383.007 339.05H413.007ZM416.714 329.857C419.006 327.564 421.949 326.15 426.807 326.15V296.15C414.866 296.15 404.008 300.136 395.501 308.643L416.714 329.857ZM426.807 326.15C431.197 326.15 434.048 327.454 436.451 329.857L457.664 308.643C449.267 300.246 438.618 296.15 426.807 296.15V326.15ZM436.741 330.139C439.474 332.728 440.607 335.4 440.607 339.05H470.607C470.607 327.1 466.041 316.572 457.374 308.361L436.741 330.139ZM440.607 339.05C440.607 343.652 439.226 346.507 436.741 348.861L457.374 370.639C466.289 362.193 470.607 351.248 470.607 339.05H440.607ZM436.758 348.845C434.513 350.965 431.469 352.4 426.357 352.4V382.4C438.046 382.4 448.802 378.735 457.357 370.655L436.758 348.845ZM503.009 460.1V475.1H503.236L503.463 475.093L503.009 460.1ZM496.709 457.4L509.189 449.08L508.828 448.538L508.422 448.03L496.709 457.4ZM495.359 452L510.208 454.121L510.262 453.741L510.297 453.358L495.359 452ZM498.509 446.15L493.765 431.92L493.765 431.92L498.509 446.15ZM504.359 444.8L506.48 459.649L506.921 459.586L507.358 459.497L504.359 444.8ZM531.809 428.15L518.189 421.864L518.145 421.961L518.101 422.058L531.809 428.15ZM535.409 369.65L520.455 370.831L520.471 371.026L520.491 371.22L535.409 369.65ZM532.259 335L517.303 336.15L517.317 336.341L517.337 336.53L532.259 335ZM539.909 267.95L527.254 259.897L527.166 260.035L527.081 260.175L539.909 267.95ZM570.059 248.6L573.245 263.258L585.059 260.689V248.6H570.059ZM570.059 246.8H585.059V234.656L573.18 232.128L570.059 246.8ZM539.909 227.45L526.98 235.055L527.03 235.14L527.081 235.225L539.909 227.45ZM532.259 160.85L517.333 159.357L517.316 159.528L517.303 159.7L532.259 160.85ZM535.409 125.3L520.487 123.77L520.467 123.959L520.453 124.15L535.409 125.3ZM534.959 74.45L520.406 78.088L520.429 78.1778L520.452 78.2674L534.959 74.45ZM525.059 59.15L515.181 70.4386L515.35 70.5863L515.523 70.7289L525.059 59.15ZM502.109 50.15L498.471 64.7021L499.018 64.839L499.574 64.9343L502.109 50.15ZM496.709 47L483.846 54.7174L484.365 55.5826L484.996 56.3704L496.709 47ZM495.359 42.05L480.397 40.9813L480.359 41.515V42.05H495.359ZM498.509 35.3L500.975 50.0959L500.975 50.0959L498.509 35.3ZM504.359 34.85L504.827 19.8573L504.593 19.85H504.359V34.85ZM533.159 40.25L528.282 54.4353L528.349 54.4581L528.415 54.4802L533.159 40.25ZM557.909 58.7L545.813 67.5704L545.885 67.6687L545.958 67.7658L557.909 58.7ZM566.909 130.7L581.89 131.449L581.89 131.44L581.891 131.431L566.909 130.7ZM565.109 167.15L580.09 167.899L580.09 167.89L580.091 167.881L565.109 167.15ZM566.009 216.65L551.33 219.74L551.348 219.822L551.366 219.904L566.009 216.65ZM575.909 231.05L585.118 219.21L585.118 219.21L575.909 231.05ZM602.459 239.15L605.4 224.441L604.663 224.294L603.915 224.221L602.459 239.15ZM606.059 242.75L592.271 248.659L592.445 249.064L592.642 249.458L606.059 242.75ZM606.059 253.1L619.475 259.808L619.672 259.414L619.846 259.009L606.059 253.1ZM602.459 256.25L603.915 271.179L604.663 271.106L605.4 270.959L602.459 256.25ZM575.909 264.35L584.691 276.51L584.907 276.354L585.118 276.19L575.909 264.35ZM566.009 278.75L580.651 282.004L580.67 281.922L580.687 281.84L566.009 278.75ZM565.109 328.25L550.126 328.981L550.127 328.99L550.127 328.999L565.109 328.25ZM566.909 364.7L581.892 363.987L581.891 363.978L581.891 363.969L566.909 364.7ZM557.459 437.6L545.868 428.079L545.684 428.303L545.508 428.534L557.459 437.6ZM532.709 455.15L537.059 469.505L537.059 469.505L532.709 455.15ZM503.009 445.1C502.935 445.1 503.789 445.079 505.092 445.638C506.559 446.266 508.083 447.419 509.189 449.08L484.228 465.721C489.209 473.192 497.112 475.1 503.009 475.1V445.1ZM508.422 448.03C509.12 448.903 509.706 450.02 510.023 451.287C510.331 452.52 510.293 453.523 510.208 454.121L480.509 449.879C479.691 455.604 480.924 461.681 484.996 466.77L508.422 448.03ZM510.297 453.358C510.346 452.816 510.366 453.71 509.578 455.174C508.616 456.961 506.577 459.272 503.252 460.38L493.765 431.92C482.879 435.549 480.83 446.134 480.42 450.642L510.297 453.358ZM503.252 460.38C504.105 460.096 505.168 459.837 506.48 459.649L502.237 429.951C499.349 430.363 496.512 431.004 493.765 431.92L503.252 460.38ZM507.358 459.497C523.542 456.194 538.9 449.127 545.516 434.242L518.101 422.058C517.517 423.373 514.575 427.406 501.359 430.103L507.358 459.497ZM545.428 434.436C550.092 424.33 552.209 413.119 552.209 401.15H522.209C522.209 409.581 520.725 416.37 518.189 421.864L545.428 434.436ZM552.209 401.15C552.209 390.937 551.571 379.905 550.326 368.08L520.491 371.22C521.646 382.195 522.209 392.163 522.209 401.15H552.209ZM550.362 368.469C549.453 356.949 548.392 345.283 547.18 333.47L517.337 336.53C518.525 348.117 519.565 359.551 520.455 370.831L550.362 368.469ZM547.214 333.85C546.34 322.477 545.909 311.914 545.909 302.15H515.909C515.909 312.786 516.378 324.123 517.303 336.15L547.214 333.85ZM545.909 302.15C545.909 291.669 548.316 283.019 552.737 275.725L527.081 260.175C519.502 272.681 515.909 286.831 515.909 302.15H545.909ZM552.564 276.003C556.288 270.15 562.504 265.593 573.245 263.258L566.872 233.942C550.013 237.607 536.129 245.95 527.254 259.897L552.564 276.003ZM585.059 248.6V246.8H555.059V248.6H585.059ZM573.18 232.128C562.068 229.764 556.087 225.204 552.737 219.675L527.081 235.225C535.73 249.496 549.849 257.836 566.937 261.472L573.18 232.128ZM552.838 219.845C548.282 212.1 545.909 203.355 545.909 193.25H515.909C515.909 208.345 519.535 222.4 526.98 235.055L552.838 219.845ZM545.909 193.25C545.909 183.796 546.339 173.385 547.214 162L517.303 159.7C516.379 171.715 515.909 182.904 515.909 193.25H545.909ZM547.184 162.343C548.395 150.232 549.455 138.268 550.364 126.45L520.453 124.15C519.562 135.732 518.522 147.468 517.333 159.357L547.184 162.343ZM550.33 126.83C551.573 114.713 552.209 103.395 552.209 92.9H522.209C522.209 102.205 521.644 112.487 520.487 123.77L550.33 126.83ZM552.209 92.9C552.209 85.1632 551.329 77.7171 549.465 70.6326L520.452 78.2674C521.588 82.5829 522.209 87.4368 522.209 92.9H552.209ZM549.511 70.8119C547.177 61.4776 541.994 53.6646 534.594 47.571L515.523 70.7289C518.324 73.0353 519.74 75.4224 520.406 78.088L549.511 70.8119ZM534.936 47.8613C527.093 40.9982 516.241 37.3538 504.643 35.3657L499.574 64.9343C508.976 66.5461 513.425 68.9018 515.181 70.4386L534.936 47.8613ZM505.747 35.5979C505.61 35.5636 507.046 35.9094 508.422 37.6295L484.996 56.3704C488.772 61.0905 493.808 63.5364 498.471 64.7021L505.747 35.5979ZM509.571 39.2825C509.811 39.6828 510.023 40.161 510.168 40.6907C510.311 41.2178 510.359 41.6867 510.359 42.05H480.359C480.359 46.4859 481.506 50.8163 483.846 54.7174L509.571 39.2825ZM510.32 43.1187C510.418 41.755 510.57 42.2564 509.964 43.5558C509.613 44.3071 508.835 45.6969 507.301 47.0692C505.645 48.5508 503.466 49.6806 500.975 50.0959L496.043 20.5041C488.617 21.7417 484.569 27.0325 482.778 30.8692C481.122 34.4186 480.599 38.145 480.397 40.9813L510.32 43.1187ZM500.975 50.0959C501.849 49.9502 502.964 49.85 504.359 49.85V19.85C501.553 19.85 498.768 20.0498 496.042 20.5041L500.975 50.0959ZM503.89 49.8427C511.905 50.0931 520.022 51.5957 528.282 54.4353L538.035 26.0647C527.095 22.3043 516.012 20.2068 504.827 19.8573L503.89 49.8427ZM528.415 54.4802C535.159 56.7283 540.914 60.8913 545.813 67.5704L570.005 49.8295C561.703 38.5087 550.958 30.3717 537.902 26.0197L528.415 54.4802ZM545.958 67.7658C549.74 72.7508 552.809 81.8406 552.809 97.4H582.809C582.809 78.7594 579.277 62.0492 569.859 49.6342L545.958 67.7658ZM552.809 97.4C552.809 107.006 552.517 117.857 551.926 129.969L581.891 131.431C582.5 118.943 582.809 107.594 582.809 97.4H552.809ZM551.927 129.951C551.327 141.957 550.727 154.113 550.126 166.419L580.091 167.881C580.69 155.587 581.29 143.443 581.89 131.449L551.927 129.951ZM550.127 166.401C549.517 178.608 549.209 189.961 549.209 200.45H579.209C579.209 190.539 579.5 179.692 580.09 167.899L550.127 166.401ZM549.209 200.45C549.209 206.723 549.946 213.164 551.33 219.74L580.687 213.56C579.671 208.736 579.209 204.377 579.209 200.45H549.209ZM551.366 219.904C553.489 229.459 559.217 237.071 566.699 242.89L585.118 219.21C581.8 216.629 580.928 214.641 580.651 213.396L551.366 219.904ZM566.699 242.89C575.507 249.741 587.843 252.795 601.002 254.079L603.915 224.221C592.474 223.105 587.11 220.759 585.118 219.21L566.699 242.89ZM599.517 253.859C597.05 253.365 595.133 252.138 593.877 250.882C592.749 249.753 592.328 248.792 592.271 248.659L619.846 236.841C618.013 232.565 613.812 226.124 605.4 224.441L599.517 253.859ZM592.642 249.458C592.84 249.854 592.409 249.184 592.409 247.7H622.409C622.409 243.216 621.077 239.246 619.475 236.042L592.642 249.458ZM592.409 247.7C592.409 247.328 592.436 247.042 592.462 246.855C592.487 246.668 592.513 246.559 592.519 246.537C592.525 246.514 592.515 246.559 592.474 246.675C592.435 246.79 592.37 246.961 592.271 247.191L619.846 259.009C621.169 255.922 622.409 252.01 622.409 247.7H592.409ZM592.642 246.392C592.844 245.989 593.411 244.994 594.606 243.949C595.892 242.823 597.585 241.928 599.517 241.541L605.4 270.959C612.792 269.48 617.212 264.334 619.475 259.808L592.642 246.392ZM601.002 241.321C587.843 242.605 575.507 245.659 566.699 252.51L585.118 276.19C587.11 274.641 592.474 272.295 603.915 271.179L601.002 241.321ZM567.126 252.19C559.166 257.939 553.41 265.784 551.33 275.66L580.687 281.84C581.008 280.316 581.851 278.561 584.691 276.51L567.126 252.19ZM551.366 275.496C549.934 281.938 549.209 288.429 549.209 294.95H579.209C579.209 290.671 579.683 286.362 580.651 282.004L551.366 275.496ZM549.209 294.95C549.209 305.144 549.517 316.493 550.126 328.981L580.091 327.519C579.5 315.407 579.209 304.556 579.209 294.95H549.209ZM550.127 328.999C550.727 340.993 551.327 353.137 551.926 365.431L581.891 363.969C581.29 351.663 580.69 339.507 580.09 327.501L550.127 328.999ZM551.926 365.413C552.516 377.814 552.809 389.273 552.809 399.8H582.809C582.809 388.727 582.501 376.786 581.892 363.987L551.926 365.413ZM552.809 399.8C552.809 414.926 549.642 423.484 545.868 428.079L569.049 447.121C579.075 434.916 582.809 418.274 582.809 399.8H552.809ZM545.508 428.534C540.707 434.863 535.056 438.765 528.358 440.795L537.059 469.505C550.161 465.535 561.01 457.737 569.409 446.666L545.508 428.534ZM528.358 440.795C519.667 443.428 511.076 444.849 502.554 445.107L503.463 475.093C514.741 474.751 525.95 472.872 537.059 469.505L528.358 440.795Z" fill="#AAAAAA" fill-opacity="0.05" mask="url(#path-1-outside-1_149_11)"/>
</svg>
