<svg width="397" height="292" viewBox="0 0 397 292" fill="none" xmlns="http://www.w3.org/2000/svg">
<path d="M20.5378 2.22417C13.6314 5.02095 6.11291 12.7121 3.8399 19.4419C1.56688 25.9094 1.74172 35.6982 4.27701 42.0783C8.47335 53.0907 5.76322 50.6435 76.0519 104.919C96.9462 121 115.13 135.246 116.529 136.47L119.152 138.742L86.4554 163.127C68.4461 176.586 43.5303 195.027 31.1161 204.117C7.07457 221.772 5.41352 223.432 1.74172 233.134C-0.443869 239.077 -0.618717 250.089 1.47945 255.421C6.28776 268.006 18.5271 275.26 33.2143 274.211C45.8033 273.337 45.1039 273.862 115.393 221.597C143.893 200.446 167.06 183.316 187.255 168.458C194.599 163.039 198.27 158.757 201.855 151.24C203.691 147.307 204.04 145.21 204.04 139.441C204.04 133.411 203.603 131.575 201.33 126.768C199.844 123.622 197.309 119.689 195.648 117.854C192.763 114.707 171.431 97.7518 146.428 78.6987C139.259 73.1926 126.058 62.9668 117.141 55.9749C108.224 48.8955 93.2744 37.3588 83.9201 30.192C74.5657 23.0253 63.2006 14.1105 58.6546 10.3523C52.0978 4.93355 49.2128 3.18556 44.7542 1.78717C36.7112 -0.747413 27.3569 -0.572614 20.5378 2.22417ZM39.4214 16.6451C41.0824 17.0821 45.4536 19.9663 49.038 23.0253C52.6224 26.0842 63.2006 34.3872 72.555 41.5539C81.9093 48.7207 96.8588 60.3448 105.776 67.3368C114.693 74.3288 129.206 85.6907 138.123 92.4205C171.694 118.029 183.933 128.167 185.944 131.663C187.255 133.935 187.954 136.557 187.954 139.529C187.954 146.87 185.157 150.104 168.197 162.602C160.066 168.545 135.238 186.899 113.032 203.418C45.8033 253.323 42.0441 255.945 36.7987 257.518C24.909 261.101 15.7295 255.333 15.7295 244.321C15.817 235.144 15.817 235.144 51.6607 208.662C126.67 153.163 144.68 139.704 144.854 139.179C145.029 138.48 127.982 124.933 87.8541 93.9062C19.4013 40.9421 22.3737 43.4767 20.363 38.8446C17.7403 32.9014 17.3032 30.192 18.3522 26.3464C20.7127 17.6939 29.1054 13.7609 39.4214 16.6451Z" fill="#AAAAAA" fill-opacity="0.05"/>
<mask id="path-2-outside-1_145_18" maskUnits="userSpaceOnUse" x="218" y="212" width="165" height="65" fill="black">
<rect fill="white" x="218" y="212" width="165" height="65"/>
<path d="M245.5 260.5C242.167 260.5 239.333 258.667 237 255C235 251.333 234 247.833 234 244.5C234 240.833 235 237.333 237 234C239.333 230.333 242.167 228.5 245.5 228.5H355C358.667 228.5 361.5 230.333 363.5 234C365.5 237.333 366.5 240.833 366.5 244.5C366.5 247.833 365.5 251.333 363.5 255C361.5 258.667 358.667 260.5 355 260.5H245.5Z"/>
</mask>
<path d="M237 255L222.954 262.662L223.212 263.135L223.501 263.59L237 255ZM237 234L223.501 225.41L223.388 225.588L223.28 225.768L237 234ZM363.5 234L349.454 241.662L349.611 241.95L349.78 242.232L363.5 234ZM363.5 255L349.454 247.338L349.454 247.338L363.5 255ZM245.5 244.5C246.958 244.5 248.428 244.955 249.567 245.692C250.554 246.33 250.772 246.84 250.499 246.41L223.501 263.59C227.766 270.292 235.055 276.5 245.5 276.5V244.5ZM251.046 247.338C250.01 245.438 250 244.561 250 244.5H218C218 251.105 219.99 257.229 222.954 262.662L251.046 247.338ZM250 244.5C250 243.91 250.118 243.234 250.72 242.232L223.28 225.768C219.882 231.432 218 237.757 218 244.5H250ZM250.499 242.59C250.772 242.16 250.554 242.67 249.567 243.308C248.428 244.045 246.958 244.5 245.5 244.5V212.5C235.055 212.5 227.766 218.708 223.501 225.41L250.499 242.59ZM245.5 244.5H355V212.5H245.5V244.5ZM355 244.5C354.027 244.5 352.58 244.212 351.183 243.308C349.891 242.472 349.431 241.62 349.454 241.662L377.546 226.338C373.216 218.399 365.448 212.5 355 212.5V244.5ZM349.78 242.232C350.382 243.234 350.5 243.91 350.5 244.5H382.5C382.5 237.757 380.618 231.432 377.22 225.768L349.78 242.232ZM350.5 244.5C350.5 244.561 350.49 245.438 349.454 247.338L377.546 262.662C380.51 257.229 382.5 251.105 382.5 244.5H350.5ZM349.454 247.338C349.431 247.38 349.891 246.528 351.183 245.692C352.58 244.788 354.027 244.5 355 244.5V276.5C365.448 276.5 373.216 270.601 377.546 262.662L349.454 247.338ZM355 244.5H245.5V276.5H355V244.5Z" fill="#AAAAAA" fill-opacity="0.05" mask="url(#path-2-outside-1_145_18)"/>
</svg>
