<svg width="500" height="526" viewBox="0 0 500 526" fill="none" xmlns="http://www.w3.org/2000/svg">
<path d="M280.294 1.56C278.823 2.2235 276.86 3.96521 275.961 5.4581C274.407 8.02919 274.325 9.60502 274.325 29.9249V51.6548L272.527 52.1524C271.464 52.4842 267.702 53.9771 264.105 55.5529L257.563 58.3728L242.355 43.0292L227.146 27.6856H222.895C217.825 27.6856 219.787 25.9439 188.635 57.5434C176.124 70.3159 165.658 81.5126 165.086 83.0884C162.796 88.4794 164.105 90.5529 180.294 106.892L195.094 121.738L193.132 125.885C192.069 128.207 190.515 131.856 189.697 134.013L188.226 137.994H167.294C147.997 137.994 146.198 138.16 143.745 139.652C138.594 142.804 138.594 142.97 138.594 176.892V207.496L133.115 210.648C130.008 212.306 125.429 215.043 122.813 216.619L118.07 219.522L103.189 204.593C95.0123 196.382 87.408 189.333 86.4268 189.001C85.3639 188.669 83.1562 188.669 81.5209 189.001C78.9043 189.498 74.816 193.314 53.3115 214.96C39.4113 228.977 27.5552 241.501 26.8193 242.828C25.3475 245.648 25.2657 249.878 26.574 252.532C27.0646 253.61 33.933 260.825 41.7825 268.622L56.0098 282.721L52.5756 291.181L49.1415 299.724H27.637H6.13246L3.02535 302.543L0 305.363V345.34V385.316L3.02535 388.136L6.13246 390.956L26.574 391.039C37.776 391.122 47.3426 391.205 47.7514 391.287C49.0597 391.453 49.6321 392.366 52.4939 399.415C54.0474 403.231 55.5192 406.714 55.6827 407.212C55.928 407.792 49.305 415.091 40.9648 423.468L25.7563 438.728V442.709C25.7563 444.866 26.1652 447.437 26.7375 448.432C27.2281 449.427 38.6754 461.536 52.2486 475.304C78.0867 501.761 80.7032 503.918 86.018 502.508C87.4898 502.176 93.8675 496.37 103.434 486.75L118.561 471.489L126.738 475.055L134.914 478.622L135.323 500.517C135.568 512.543 136.059 523.077 136.468 523.823C137.122 525.233 139.984 525.316 180.213 525.316H223.385L224.53 522.994C225.429 521.335 225.756 515.695 225.92 499.522L226.165 478.207L230.008 476.797C232.134 475.968 235.65 474.392 237.858 473.314L241.864 471.24L256.664 486.252C272.281 502.093 274.325 503.503 279.395 502.01C281.357 501.513 289.043 494.214 308.095 474.889C330.662 451.998 334.096 448.183 334.505 445.529C334.832 443.87 334.832 441.548 334.505 440.47C334.26 439.392 327.31 431.678 319.133 423.468L304.17 408.456L305.315 405.719C309.567 395.351 313.491 383.491 313.573 381.169C313.655 373.456 306.378 368.562 299.428 371.714C295.503 373.456 295.012 374.285 291.169 385.15C289.697 389.546 287.081 395.849 285.364 399.25C278.986 412.105 278.904 411.856 295.993 429.107C303.434 436.655 309.485 443.124 309.485 443.622C309.485 444.119 302.126 451.915 293.05 461.039L276.697 477.626L264.023 464.439C257.073 457.141 250.368 450.505 249.141 449.676C245.544 447.271 242.518 447.851 231.725 453.077C226.165 455.731 219.133 458.716 216.108 459.712C209.321 462.034 206.787 464.024 205.642 467.923C205.233 469.581 204.824 479.285 204.824 489.404V507.899H180.294H155.846L155.601 487.247L155.356 466.513L152.984 464.024C151.349 462.283 148.406 460.873 143.091 459.048C138.921 457.721 131.725 454.735 127.146 452.413C118.643 448.017 116.599 447.603 112.674 449.013C111.447 449.51 104.415 456.145 97.1382 463.776L83.8921 477.626L67.0482 460.624L50.2862 443.622L63.6958 429.937C71.0548 422.389 77.5143 415.423 78.0049 414.427C79.6402 411.11 78.9043 407.543 74.489 398.171C72.036 393.112 69.0924 385.896 67.9477 382.164C65.5765 374.866 63.5323 372.295 59.1987 371.051C57.6451 370.553 48.242 370.221 38.2666 370.221H20.0327V345.34V320.458H38.8389C63.7776 320.458 63.8594 320.458 68.2747 307.603C69.7465 303.456 72.6901 296.323 74.8978 291.596C79.0679 282.721 79.722 278.906 77.6778 275.92C77.0237 275.008 70.5642 268.29 63.3688 260.991L50.2044 247.887L67.0482 230.885L83.8103 213.882L97.1382 227.733C104.415 235.363 111.447 241.998 112.756 242.413C117.498 244.321 118.806 243.823 134.178 234.119C142.355 228.977 143.5 228.479 145.462 229.226C146.77 229.724 156.092 230.055 167.948 230.055H188.144L191.578 238.515L195.012 246.975L188.389 253.776L181.766 260.494L173.917 261.074C154.047 262.401 134.996 271.193 120.687 285.79C103.516 303.124 95.094 325.434 96.3205 349.901C97.4653 370.802 104.906 388.633 118.97 403.645C134.015 419.735 151.676 428.361 173.835 430.434C183.729 431.347 188.553 428.776 189.779 421.892C190.433 418.242 188.307 413.266 185.364 411.524C184.137 410.778 179.967 410.032 176.043 409.7C152.657 407.875 133.361 394.771 123.222 373.87C118.152 363.337 117.007 358.195 117.007 345.754C117.089 330.411 120.196 319.96 128.291 308.598C136.304 297.152 151.267 286.37 161.733 284.38C164.023 283.965 164.432 284.131 165.331 286.205C166.885 289.771 217.089 340.114 219.787 340.778C224.693 342.022 227.8 340.529 233.933 334.06C237.122 330.66 239.984 327.923 240.229 327.923C240.801 327.923 242.273 335.221 242.927 341.607C244.235 354.96 238.594 373.622 229.926 384.487C224.121 391.702 223.63 392.78 223.63 396.844C223.63 403.396 228.455 407.378 235.323 406.465C238.103 406.133 239.411 405.304 242.273 401.987C258.463 383.823 266.149 357.863 262.551 333.977C261.488 326.844 259.362 318.799 256.746 311.915C255.928 309.842 257.4 310.091 266.149 313.74L273.917 317.058L274.325 338.87C274.653 354.38 275.061 361.181 275.797 362.508C278.25 366.904 278.577 366.904 320.033 366.904H358.545L361.079 364.581C364.595 361.43 365.086 357.366 365.004 335.138C365.004 325.103 365.086 316.892 365.249 316.809C366.067 316.228 380.376 310.505 381.03 310.505C381.439 310.505 388.226 317.224 396.075 325.351C411.284 341.027 412.756 342.022 418.397 340.695C420.442 340.28 426.983 334.226 447.016 313.906C474.489 285.956 474.98 285.375 473.426 279.238C473.099 277.745 467.375 271.276 458.136 261.904L443.418 246.809L446.525 238.432L449.714 230.055H470.401C493.459 230.055 495.503 229.641 498.365 224.913C499.918 222.259 500 220.849 500 184.024C500 142.97 500 143.468 495.666 140.15C493.459 138.491 492.069 138.408 471.627 137.994L449.959 137.579L446.77 130.114C445.053 125.968 443.581 122.235 443.581 121.821C443.581 121.323 450.041 114.439 457.89 106.477C467.212 97.105 472.527 91.0505 473.099 89.3088C474.98 83.5031 474.489 82.8396 446.934 54.8064C419.706 27.105 418.397 26.0268 412.756 27.3538C411.284 27.7685 405.397 33.2425 395.748 43.1951L381.03 58.4557L374.08 55.47C370.237 53.8112 366.639 52.2354 366.067 51.9036C365.249 51.4889 365.004 46.1809 364.841 29.5932C364.677 9.10739 364.595 7.78038 362.96 5.54104C359.199 0.315922 359.362 0.315922 319.297 0.315922C289.943 0.39886 282.42 0.564737 280.294 1.56ZM343.827 40.4581C343.827 52.2354 344.154 60.8609 344.726 62.2709C346.198 66.2519 348.733 68.1595 355.601 70.4818C359.28 71.6429 366.394 74.7117 371.464 77.1169C380.703 81.5955 384.137 82.4249 387.408 80.6003C388.389 80.1027 395.094 73.4676 402.371 65.9202L415.536 52.1524L432.052 68.906C441.047 78.0292 448.487 85.8254 448.487 86.0742C448.487 86.323 442.273 92.7922 434.669 100.423C417.334 117.84 417.825 116.43 424.612 131.11C427.31 136.998 430.172 143.799 430.908 146.287C433.034 153.005 434.342 155.328 437.285 157.069C439.657 158.562 441.537 158.728 459.771 158.728H479.558V184.024V209.321H459.117H438.675L435.895 211.975C433.851 213.965 432.461 216.785 430.499 222.591C429.109 226.904 426.083 234.285 423.876 238.93C417.989 251.287 417.661 250.458 434.669 267.543C442.273 275.174 448.487 281.726 448.487 282.058C448.487 282.472 441.128 290.186 432.134 299.309L415.781 315.896L401.717 301.631C384.301 284.131 385.282 284.546 373.181 290.517C368.52 292.84 360.834 296.157 356.092 297.899C347.751 300.885 347.424 301.051 345.707 304.7C343.908 308.183 343.827 309.344 343.827 327.259V346.169H319.297H294.767V326.347C294.767 301.382 295.258 302.543 281.684 297.484C276.533 295.577 268.684 292.259 264.268 290.103C253.23 284.712 253.72 284.546 236.713 301.797C229.272 309.344 223.058 315.482 222.813 315.482C222.567 315.482 214.881 307.934 205.805 298.645L189.289 281.892L203.271 267.709C216.517 254.273 217.253 253.278 217.661 249.795C217.989 246.726 217.58 245.067 214.473 238.764C210.793 231.299 208.749 226.24 205.887 217.697C203.271 209.901 203.107 209.818 179.64 209.321L159.444 208.906L159.199 183.776L159.035 158.728H178.414C201.226 158.728 202.617 158.396 204.988 152.093C205.805 150.02 207.359 145.707 208.585 142.555C209.812 139.321 212.428 133.349 214.391 129.285C217.498 122.982 217.989 121.24 217.661 118.171C217.253 114.771 216.435 113.693 203.271 100.34L189.289 86.1572L205.887 69.3207L222.404 52.5671L235.487 65.9202C242.682 73.2188 249.55 79.7709 250.777 80.4344C254.374 82.342 257.645 81.7614 265.249 77.9463C269.174 75.8728 276.288 72.887 280.948 71.2282C294.931 66.3349 294.767 66.6666 294.767 40.541V21.0505H319.297H343.827V40.4581Z" fill="#AAAAAA"/>
<path d="M304.905 103.575C269.745 110.044 243.008 136.335 235.812 171.584C233.932 180.873 233.768 195.056 235.567 204.428C242.926 243.823 275.305 272.52 314.88 274.594C333.278 275.589 350.939 270.613 366.638 260.079C372.607 256.098 382.419 246.643 387.325 240.008C392.885 232.627 399.018 219.605 401.552 209.736C403.433 202.52 403.76 199.783 403.76 188.587C403.76 177.307 403.515 174.736 401.634 167.686C397.791 152.84 391.086 140.565 381.029 129.783C361.242 108.551 332.215 98.5154 304.905 103.575ZM336.467 125.553C354.128 130.696 368.846 143.219 376.859 159.973C381.765 170.091 383.482 177.639 383.4 189.001C383.319 200.198 381.765 207.082 376.859 217.2C368.764 234.203 354.21 246.478 335.976 251.786C330.743 253.278 327.472 253.61 318.887 253.61C307.93 253.61 305.068 253.113 295.256 249.38C283.891 245.068 270.399 233.456 263.776 222.342C250.857 200.364 251.757 172.165 266.148 151.513C270.972 144.463 279.803 136.087 286.671 132.023C292.067 128.705 301.879 125.056 308.502 123.895C314.88 122.65 329.598 123.563 336.467 125.553Z" fill="#AAAAAA"/>
</svg>
